<svg xmlns="http://www.w3.org/2000/svg" xmlns:xlink="http://www.w3.org/1999/xlink" width="203.38" height="52.03" viewBox="0 0 203.38 52.03">
  <defs>
    <clipPath id="clip-path">
      <rect id="Rectangle_1" data-name="Rectangle 1" width="203.38" height="52.03" fill="#fff"/>
    </clipPath>
  </defs>
  <g id="Group_5" data-name="Group 5" transform="translate(0 -770)">
    <g id="Group_1" data-name="Group 1" transform="translate(0 770)" clip-path="url(#clip-path)">
      <path id="Path_1" data-name="Path 1" d="M173.3,35.748a11.739,11.739,0,0,1,8.32,3.522,11.928,11.928,0,0,1,3.463,8.371,12.371,12.371,0,0,1-3.463,8.554,12.048,12.048,0,0,1-3.733,2.562,11.632,11.632,0,0,1-4.587.915,8.368,8.368,0,0,1-5.531-1.83V57.8l2.249-4.208.045.046a5.945,5.945,0,0,0,2.473.549,6.192,6.192,0,0,0,2.473-.5,6.286,6.286,0,0,0,2.024-1.372,6.553,6.553,0,0,0,1.889-4.666,6.158,6.158,0,0,0-.495-2.47,6.064,6.064,0,0,0-1.394-2.058,6.28,6.28,0,0,0-2.024-1.372,6.186,6.186,0,0,0-2.473-.5,6.3,6.3,0,0,0-2.518.5,6.377,6.377,0,0,0-3.328,3.43,6.151,6.151,0,0,0-.495,2.47V68.133h-6.071V36.114H166.2v3.111a8.118,8.118,0,0,1,7.105-3.477" transform="translate(-96.371 -21.27)" fill="#fff"/>
      <path id="Path_2" data-name="Path 2" d="M251.98,36.114V58.985h-5.891V47.549a6.122,6.122,0,0,0-1.888-4.483,6.556,6.556,0,0,0-4.407-1.83,5.876,5.876,0,0,0-2.428.5,7.014,7.014,0,0,0-2.024,1.373,5.905,5.905,0,0,0-1.349,2.012,6.148,6.148,0,0,0-.495,2.47,6.036,6.036,0,0,0,.495,2.424,6.565,6.565,0,0,0,1.349,2.013,7.021,7.021,0,0,0,2.024,1.372,5.877,5.877,0,0,0,2.428.5,5.211,5.211,0,0,0,2.384-.5h.045V53.5l2.248,4.071-.045.046a8.515,8.515,0,0,1-5.442,1.738,11.2,11.2,0,0,1-4.5-.915A11.55,11.55,0,0,1,230.8,55.92a12.437,12.437,0,0,1-2.519-3.751,12.2,12.2,0,0,1,0-9.194,12.438,12.438,0,0,1,2.519-3.751,11.55,11.55,0,0,1,3.688-2.516,10.742,10.742,0,0,1,4.5-.96,8.725,8.725,0,0,1,4.092.914,8.363,8.363,0,0,1,3.013,2.562v-3.11Z" transform="translate(-136.847 -21.27)" fill="#fff"/>
      <path id="Path_3" data-name="Path 3" d="M300.742,56.412l-7.87-19.761H299.3V36.7l5.8,16.6Zm17.223-19.761-.045.092q-.764,2.1-1.484,4.117-.719,1.967-1.349,3.7-2.249,6.4-4.047,11.024a34.655,34.655,0,0,1-3.777,7.456,12.744,12.744,0,0,1-4.587,4.3,13.525,13.525,0,0,1-6.341,1.326h-.09V62.45h.09q1.169,0,2.068-.092a5.872,5.872,0,0,0,1.709-.412,4.33,4.33,0,0,0,1.394-.823,5.565,5.565,0,0,0,1.259-1.372,14.686,14.686,0,0,0,1.169-2.013q.583-1.189,1.214-2.836t1.394-3.8q.765-2.2,1.709-4.94.72-2.059,1.529-4.391t1.753-5.077v-.046Z" transform="translate(-176.262 -21.807)" fill="#fff"/>
      <path id="Path_4" data-name="Path 4" d="M373.422,22.937a11.2,11.2,0,0,1,4.5.915,11.543,11.543,0,0,1,3.688,2.516,11.781,11.781,0,0,1,2.473,3.751,11.554,11.554,0,0,1,0,9.149,11.781,11.781,0,0,1-2.473,3.751,11.543,11.543,0,0,1-3.688,2.516,11.2,11.2,0,0,1-4.5.915,8.072,8.072,0,0,1-7.06-3.477v3.111h-5.937V14.063h5.981v20.63a6.151,6.151,0,0,0,.495,2.47,7,7,0,0,0,1.3,2.012,6.868,6.868,0,0,0,1.978,1.326,6.186,6.186,0,0,0,2.473.5,5.766,5.766,0,0,0,2.384-.5,6.145,6.145,0,0,0,1.978-1.326,6.562,6.562,0,0,0,1.349-2.012,6.419,6.419,0,0,0,0-4.94,6.564,6.564,0,0,0-1.349-2.013,5.3,5.3,0,0,0-1.978-1.326,5.759,5.759,0,0,0-2.384-.5,6.29,6.29,0,0,0-2.428.5l-.045.046-.045-.092-2.2-4.117.045-.046a8.514,8.514,0,0,1,5.441-1.738" transform="translate(-216.919 -8.367)" fill="#fff"/>
      <path id="Path_5" data-name="Path 5" d="M427.818,23.211H433.8V46.082h-5.981Zm0-9.149H433.8v5.352h-5.981Z" transform="translate(-257.478 -8.367)" fill="#fff"/>
      <path id="Path_6" data-name="Path 6" d="M449.7,14.062h5.936v32.02h-5.981Z" transform="translate(-270.622 -8.367)" fill="#fff"/>
      <path id="Path_7" data-name="Path 7" d="M486.466,30.361v5.077h-3.328l-2.788-5.077Zm-6.88,12.671a2.449,2.449,0,0,0,.72,1.784,2.516,2.516,0,0,0,1.8.732h4.362v5.306H482.1a8.746,8.746,0,0,1-3.327-.64,9.212,9.212,0,0,1-2.7-1.83,9.4,9.4,0,0,1-1.8-2.744A8.3,8.3,0,0,1,473.6,42.3V35.438h-3.238V30.361H473.6V22.082h5.981Z" transform="translate(-283.086 -13.139)" fill="#fff"/>
      <path id="Path_8" data-name="Path 8" d="M0,6.112V52.029L10.171,28.807A6.7,6.7,0,0,1,16.3,24.747h4.588A12.271,12.271,0,0,0,33.053,12.373,12.271,12.271,0,0,0,20.888,0H6.01A6.062,6.062,0,0,0,0,6.112" transform="translate(0 0.001)" fill="#fff"/>
      <path id="Path_9" data-name="Path 9" d="M32.171,59.717,2.75,87.562H28.878a14.134,14.134,0,0,0,4.741-27.3Z" transform="translate(-1.655 -35.532)" fill="#fff"/>
    </g>
  </g>
</svg>
