<svg xmlns="http://www.w3.org/2000/svg" xmlns:xlink="http://www.w3.org/1999/xlink" width="40.326" height="40.309" viewBox="0 0 40.326 40.309">
  <defs>
    <clipPath id="clip-path">
      <rect id="Rectangle_187" data-name="Rectangle 187" width="40.326" height="40.309" fill="none"/>
    </clipPath>
  </defs>
  <g id="Group_55" data-name="Group 55" transform="translate(0 0)">
    <g id="Group_54" data-name="Group 54" transform="translate(0 0)" clip-path="url(#clip-path)">
      <path id="Path_80" data-name="Path 80" d="M0,73.221a10.229,10.229,0,0,1,.6-1.646,4.378,4.378,0,0,1,6.465-1.31c2.759,2.047,5.5,4.119,8.251,6.177A10.155,10.155,0,0,0,17.9,78.071a6.035,6.035,0,0,0,5.871-.743c3.16-2.3,6.266-4.671,9.394-7.012a4.406,4.406,0,0,1,7.128,3.3c.027,3.332.058,6.665-.006,10A9.41,9.41,0,0,1,31.931,92.6a11.732,11.732,0,0,1-1.177.068q-10.606.006-21.212,0A9.437,9.437,0,0,1,.2,85.159C.126,84.8.068,84.443,0,84.085V73.221m20.15,16.3q5.294,0,10.588,0a6.293,6.293,0,0,0,6.42-6.431c0-3.031,0-6.061.005-9.092a1.294,1.294,0,0,0-2.2-1.1q-4.495,3.384-9,6.748A9.44,9.44,0,0,1,14.286,79.6Q9.835,76.262,5.38,72.923a1.348,1.348,0,0,0-1.524-.27,1.346,1.346,0,0,0-.713,1.372c.012,3.018,0,6.035.011,9.053a6.885,6.885,0,0,0,.114,1.329,6.279,6.279,0,0,0,6.255,5.108q5.313.009,10.627,0" transform="translate(0 -52.359)" />
      <path id="Path_81" data-name="Path 81" d="M40.079,0c.7.159,1.416.265,2.1.485A9.433,9.433,0,0,1,48.657,9.3c.012,1,.008,1.994,0,2.991a1.575,1.575,0,1,1-3.147,0c-.021-1.245.047-2.5-.087-3.732a6.187,6.187,0,0,0-5.977-5.4q-7.083-.053-14.166,0a6.268,6.268,0,0,0-6.058,6.064c-.021,1.01,0,2.02-.007,3.03a1.576,1.576,0,1,1-3.145,0c.012-1.311-.031-2.628.084-3.93A9.42,9.42,0,0,1,23.807.157c.282-.047.562-.1.843-.157Z" transform="translate(-12.132)" />
      <path id="Path_82" data-name="Path 82" d="M68.386,42.4a1.54,1.54,0,0,1-1.541-1.435.413.413,0,0,0-.378-.435c-.557-.143-1.111-.305-1.651-.5a1.553,1.553,0,0,1-.97-2,1.6,1.6,0,0,1,2.046-.958c.75.225,1.511.425,2.279.576.7.138,1.151-.15,1.2-.67.049-.488-.4-.847-1.09-.869a4.516,4.516,0,0,1-3.737-1.759,3.857,3.857,0,0,1,1.895-5.872.532.532,0,0,0,.419-.507,1.533,1.533,0,0,1,1.575-1.307,1.5,1.5,0,0,1,1.493,1.347.634.634,0,0,0,.6.692,4.488,4.488,0,0,1,.816.28,1.561,1.561,0,0,1,.9,1.977,1.592,1.592,0,0,1-1.972.981c-.793-.211-1.6-.386-2.4-.541a.843.843,0,0,0-.55.147.648.648,0,0,0,.032,1.153,3.481,3.481,0,0,0,1.17.259,4.1,4.1,0,0,1,3.684,2.41,3.867,3.867,0,0,1-1.858,5.04.608.608,0,0,0-.4.581A1.538,1.538,0,0,1,68.386,42.4" transform="translate(-48.124 -20.126)" />
    </g>
  </g>
</svg>
