<svg xmlns="http://www.w3.org/2000/svg" xmlns:xlink="http://www.w3.org/1999/xlink" width="40.326" height="42.59" viewBox="0 0 40.326 42.59">
  <defs>
    <clipPath id="clip-path">
      <rect id="Rectangle_185" data-name="Rectangle 185" width="40.326" height="42.59" fill="none"/>
    </clipPath>
  </defs>
  <g id="Group_51" data-name="Group 51" transform="translate(0 0)">
    <g id="Group_50" data-name="Group 50" transform="translate(0 0)" clip-path="url(#clip-path)">
      <path id="Path_77" data-name="Path 77" d="M20.5,42.591H19.83a.926.926,0,0,0-.135-.085q-9.3-3.823-18.6-7.642A1.42,1.42,0,0,1,0,33.225Q0,21.281,0,9.338A1.418,1.418,0,0,1,1.095,7.7Q10.26,3.932,19.422.159a1.822,1.822,0,0,1,1.482,0Q30.1,3.949,39.31,7.723a1.388,1.388,0,0,1,1.015,1.531q0,12.027,0,24.054a1.39,1.39,0,0,1-1.016,1.531q-7.225,2.967-14.451,5.933c-1.457.6-2.908,1.212-4.362,1.819m1-3.338c.191-.07.345-.121.5-.183q7.626-3.133,15.254-6.26a.572.572,0,0,0,.422-.631q-.016-10.255-.008-20.51v-.5c-.181.064-.31.1-.434.154q-7.7,3.162-15.41,6.319c-.3.124-.325.3-.324.569q.007,10.3,0,20.593v.447M2.687,11.155c-.009.179-.02.289-.02.4q0,10.363-.008,20.727c0,.3.116.4.365.5q6,2.45,11.995,4.918c1.253.514,2.5,1.031,3.792,1.561.008-.151.019-.257.019-.363q0-10.384.007-20.768a.441.441,0,0,0-.326-.485c-1.8-.725-3.591-1.464-5.385-2.2l-1.8-.742v.515c0,1.72,0,3.441,0,5.161a1.382,1.382,0,0,1-.736,1.344A1.315,1.315,0,0,1,8.66,20.515q-.021-3.246,0-6.493a.515.515,0,0,0-.38-.58c-.8-.3-1.59-.648-2.385-.974-1.048-.43-2.1-.858-3.211-1.313m10.558,1.437c.2.088.323.146.45.2,2.01.828,4.024,1.647,6.027,2.489a1.071,1.071,0,0,0,.9-.008Q27,12.642,33.377,10.026c.727-.3,1.452-.6,2.211-.917-.085-.047-.119-.072-.157-.087-2.33-.96-4.658-1.924-6.993-2.871a.725.725,0,0,0-.5.039q-3.51,1.512-7.01,3.045c-2.538,1.107-5.074,2.217-7.682,3.356M24.771,4.653c-.206-.091-.327-.148-.451-.2-1.241-.512-2.486-1.015-3.721-1.542a1.027,1.027,0,0,0-.867,0Q13.36,5.546,6.981,8.158c-.731.3-1.461.605-2.248.931.154.071.239.114.327.15,1.459.6,2.92,1.2,4.375,1.807a.812.812,0,0,0,.7-.005q3.344-1.473,6.7-2.926l7.933-3.463" transform="translate(0 0)"/>
    </g>
  </g>
</svg>
