<svg xmlns="http://www.w3.org/2000/svg" xmlns:xlink="http://www.w3.org/1999/xlink" width="41.852" height="41.84" viewBox="0 0 41.852 41.84">
  <defs>
    <clipPath id="clip-path">
      <rect id="Rectangle_201" data-name="Rectangle 201" width="41.852" height="41.84" fill="none"/>
    </clipPath>
  </defs>
  <g id="Group_68" data-name="Group 68" transform="translate(0 0)">
    <g id="Group_67" data-name="Group 67" transform="translate(0 0)" clip-path="url(#clip-path)">
      <path id="Path_101" data-name="Path 101" d="M41.852,17.409a4.131,4.131,0,0,1-.5.825,1.508,1.508,0,0,1-1.692.376A1.577,1.577,0,0,1,38.6,17.237a3.877,3.877,0,0,1-.012-.489q0-5.025,0-10.05A3.228,3.228,0,0,0,36.17,3.408a3.857,3.857,0,0,0-1.047-.133q-14.2-.01-28.394,0A3.276,3.276,0,0,0,3.278,6.7q-.009,9.233,0,18.466A3.276,3.276,0,0,0,6.727,28.6q14.2.006,28.394,0a3.276,3.276,0,0,0,3.457-3.178,1.638,1.638,0,0,1,3.225-.481.28.28,0,0,0,.049.064v1.063a.506.506,0,0,0-.068.142,6.63,6.63,0,0,1-6.724,5.674c-9.426-.04-18.852-.011-28.278-.019a7.687,7.687,0,0,1-1.5-.13A6.513,6.513,0,0,1,.01,25.3c-.016-2.152,0-4.3,0-6.457,0-4.059-.02-8.118.007-12.177A6.368,6.368,0,0,1,3.876.593,12.865,12.865,0,0,1,5.809,0h30.24a.869.869,0,0,0,.182.073,6.35,6.35,0,0,1,4.977,3.693A14.579,14.579,0,0,1,41.852,5.8Z" transform="translate(0 -0.001)" />
      <path id="Path_102" data-name="Path 102" d="M93.43,146.965a1.874,1.874,0,0,1-2.04,1.318q-10.171-.031-20.343-.007a1.808,1.808,0,0,1-1.446-.527,1.554,1.554,0,0,1-.339-1.669,1.576,1.576,0,0,1,1.376-1.063,4.34,4.34,0,0,1,.53-.012c6.74,0,13.48.01,20.221-.011a1.875,1.875,0,0,1,2.04,1.318Z" transform="translate(-51.577 -108.144)" />
      <path id="Path_103" data-name="Path 103" d="M60.151,43.427c0-1.244-.02-2.489.005-3.733a2.849,2.849,0,0,1,3.059-2.808,3.311,3.311,0,0,1,1.319.417q3.135,1.769,6.232,3.605a2.877,2.877,0,0,1,0,5.077q-3.1,1.833-6.227,3.613a2.875,2.875,0,0,1-4.387-2.549c-.009-1.207,0-2.415,0-3.622Zm2.986-3.534V47l6.12-3.553-6.12-3.553" transform="translate(-44.859 -27.505)" />
      <path id="Path_104" data-name="Path 104" d="M4.836,140.52c1.035,0,2.069-.006,3.1,0a.585.585,0,0,0,.541-.262,3.218,3.218,0,0,1,3.722-1.079,3.248,3.248,0,0,1-.259,6.185,3.194,3.194,0,0,1-3.549-1.283.611.611,0,0,0-.594-.3q-3.022.014-6.044,0a1.628,1.628,0,0,1-1.636-2.121,1.611,1.611,0,0,1,1.571-1.141c1.048-.012,2.1,0,3.144,0" transform="translate(-0.031 -103.661)" />
    </g>
  </g>
</svg>
