<svg xmlns="http://www.w3.org/2000/svg" xmlns:xlink="http://www.w3.org/1999/xlink" width="42.07" height="36.307" viewBox="0 0 42.07 36.307">
  <defs>
    <clipPath id="clip-path">
      <rect id="Rectangle_198" data-name="Rectangle 198" width="42.07" height="36.307" fill="none"/>
    </clipPath>
  </defs>
  <g id="Group_61" data-name="Group 61" transform="translate(0 0)">
    <g id="Group_60" data-name="Group 60" transform="translate(0 0)" clip-path="url(#clip-path)">
      <path id="Path_94" data-name="Path 94" d="M.391,33.593H2.475a.391.391,0,0,0,.391-.391v-.171q0-13.4,0-26.8c0-1.136.263-1.474,1.354-1.767,5.4-1.453,10.81-2.884,16.2-4.383a1.5,1.5,0,0,1,2.037,1.571c-.064,1.346-.025,2.7-.018,4.068a.391.391,0,0,1-.391.393h-1.9a.391.391,0,0,1-.391-.391V3.59a.392.392,0,0,0-.491-.378c-.618.162-1.209.316-1.8.474Q11.7,5.237,5.936,6.784a.426.426,0,0,0-.379.5q.012,12.948.006,25.9a.391.391,0,0,0,.391.391h13.39a.391.391,0,0,0,.391-.391v-.117q0-11.284,0-22.567c0-1.161.488-1.649,1.646-1.65l15.969-.01a1.874,1.874,0,0,1,1.875,1.873q0,7.65,0,15.3v0a.386.386,0,0,1-.388.381h-1.9A.391.391,0,0,1,36.552,26V11.953a.391.391,0,0,0-.391-.391h-13.3a.391.391,0,0,0-.391.391V33.2a.391.391,0,0,0,.391.391H41.679a.391.391,0,0,1,.391.391v1.935a.391.391,0,0,1-.391.391H.391A.391.391,0,0,1,0,35.915v-1.93a.391.391,0,0,1,.391-.391" transform="translate(0 0)" />
      <rect id="Rectangle_190" data-name="Rectangle 190" width="6.373" height="2.654" transform="translate(9.471 15.048)" />
      <rect id="Rectangle_191" data-name="Rectangle 191" width="6.38" height="2.65" transform="translate(26.253 15.057)" />
      <rect id="Rectangle_192" data-name="Rectangle 192" width="6.376" height="2.657" transform="translate(9.467 21.193)" />
      <rect id="Rectangle_193" data-name="Rectangle 193" width="6.377" height="2.656" transform="translate(26.253 21.193)" />
      <rect id="Rectangle_194" data-name="Rectangle 194" width="6.37" height="2.638" transform="translate(9.466 8.919)" />
      <rect id="Rectangle_195" data-name="Rectangle 195" width="6.37" height="2.633" transform="translate(9.476 27.349)" />
      <rect id="Rectangle_196" data-name="Rectangle 196" width="6.37" height="2.637" transform="translate(26.251 27.338)" />
      <rect id="Rectangle_197" data-name="Rectangle 197" width="2.645" height="2.478" transform="translate(36.558 28.86)" />
    </g>
  </g>
</svg>
