<svg xmlns="http://www.w3.org/2000/svg" xmlns:xlink="http://www.w3.org/1999/xlink" width="47.521" height="40.793" viewBox="0 0 47.521 40.793">
  <defs>
    <clipPath id="clip-path">
      <rect id="Rectangle_199" data-name="Rectangle 199" width="47.521" height="40.793" fill="none"/>
    </clipPath>
  </defs>
  <g id="Group_64" data-name="Group 64" transform="translate(0 0)">
    <g id="Group_63" data-name="Group 63" transform="translate(0 0)" clip-path="url(#clip-path)">
      <path id="Path_95" data-name="Path 95" d="M47.493,85.168c-.011-.026-.022-.052-.033-.078a.488.488,0,0,1-.032-.08,3.8,3.8,0,0,0-3.264-2.977,6.981,6.981,0,0,0-1.146-.025l-.161.005a3.958,3.958,0,0,0-2.9-3.213,3.515,3.515,0,0,0-3.883,1.242c-.346.408-.672.832-.975,1.232a1.079,1.079,0,0,0,.128,1.6,1.112,1.112,0,0,0,1.581-.283c.142-.175.281-.352.42-.529.17-.217.34-.433.515-.645a1.516,1.516,0,0,1,1.694-.535A1.952,1.952,0,0,1,40.718,82.4c0,.031,0,.054,0,.071-.016,0-.037.01-.065.015q-2.374.439-4.745.894c-1.834.349-3.73.709-5.6,1.05-.217.04-.435.07-.656.1q1.266-.615,2.53-1.233a2.544,2.544,0,0,0,1.539-2.428,3.924,3.924,0,0,0-1.509-3,3.734,3.734,0,0,0-3.1-.79,19.891,19.891,0,0,0-2.294.677c-.482.163-.98.333-1.471.471a7.246,7.246,0,0,1-1.855.319c-2.29.011-4.777-.015-7.607-.077a6.42,6.42,0,0,0-5.063,2.1q-1.386,1.5-2.783,2.985L6.6,85.1l-.035.037a1.558,1.558,0,0,0-.255.327,1.036,1.036,0,0,0,.238,1.352,1.01,1.01,0,0,0,1.331.038,2.45,2.45,0,0,0,.327-.311l4.285-4.586a4.025,4.025,0,0,1,3.045-1.331h.033c2.442.017,5,.049,7.613.1a8.246,8.246,0,0,0,2.958-.467c.971-.346,1.969-.678,2.966-.989a1.9,1.9,0,0,1,1.575.17,1.877,1.877,0,0,1,.871,1.3c.067.372-.071.5-.23.575q-.508.251-1.013.506a25.151,25.151,0,0,1-6.972,2.668,19.913,19.913,0,0,0-2.067.5c-.206.058-.413.116-.619.172a1.088,1.088,0,0,0-.851,1.323,1.065,1.065,0,0,0,1.356.774,4.409,4.409,0,0,0,.628-.167c.136-.048.241-.047.462.088,1.167.713,2.24,1.338,3.282,1.911a5.753,5.753,0,0,0,3.792.613c2.137-.35,4.307-.718,6.406-1.075q1.785-.3,3.57-.6c.253-.042.506-.087.759-.131.791-.138,1.609-.281,2.413-.368a1.818,1.818,0,0,1,1.965,1.565c.173,1.107-.778,1.533-1.361,1.688l-1.728.46q-6.2,1.651-12.4,3.31a4.782,4.782,0,0,1-2.416.02q-1.247-.3-2.5-.594c-1.044-.247-2.087-.494-3.129-.748a4.9,4.9,0,0,0-4.776,1.28c-.369.349-.74.694-1.116,1.043l-.26.242-.055-.049-3.467-3.185L5.731,87.5a2.056,2.056,0,0,0-3.12.126q-.525.566-1.045,1.136-.418.457-.838.913A2.337,2.337,0,0,0,0,91.34a2.3,2.3,0,0,0,.842,1.583Q3.52,95.39,6.2,97.849l.573.526a2.059,2.059,0,0,0,.417.32.954.954,0,0,0,1.34-.323,1.7,1.7,0,0,0,.1-1.044.871.871,0,0,0-.373-.525c-.029-.023-.057-.046-.082-.069l-1.194-1.1c-1.523-1.4-3.1-2.852-4.659-4.266a.724.724,0,0,1-.111-.12.752.752,0,0,1,.1-.126c.433-.447.856-.914,1.266-1.365q.252-.277.5-.554c.034-.037.09-.1.139-.148.05.042.106.094.135.12l2.81,2.583Q10.59,94.9,14.009,98.03a.672.672,0,0,1,.074.077.688.688,0,0,1-.061.073c-.7.746-1.332,1.43-1.921,2.091l-.031.032c-.013-.01-.029-.024-.048-.042-.332-.316-.7-.652-1.15-1.058a1.1,1.1,0,0,0-1.605-.023,1.07,1.07,0,0,0,.129,1.6c.4.377.817.764,1.251,1.151a2.152,2.152,0,0,0,1.434.587,2.123,2.123,0,0,0,1.551-.725c.614-.656,1.229-1.33,1.824-1.982l.217-.238a2.1,2.1,0,0,0,.521-2.133.2.2,0,0,1,0-.023l.067-.066c.521-.509,1.059-1.036,1.619-1.507a2.454,2.454,0,0,1,2.211-.575c1.925.436,3.881.9,5.979,1.4a6.9,6.9,0,0,0,3.44-.039l4.353-1.162q5-1.334,9.989-2.67a3.566,3.566,0,0,0,2.676-4.246.362.362,0,0,1,.009-.178c.221-.443.458-.889.688-1.322l.29-.547V85.238ZM26.46,86.846a33.976,33.976,0,0,0,7.467-.88l.56-.109q3.942-.761,7.888-1.505l.923-.175a1.734,1.734,0,0,1,1.8.766,1.541,1.541,0,0,1,.153,1.4,4.53,4.53,0,0,0-3.966-.868c-2.952.523-5.96,1.025-8.868,1.511l-3.3.553a4.026,4.026,0,0,1-2.7-.421l-.509-.281c.184,0,.367,0,.549.008" transform="translate(0 -61.721)" />
      <path id="Path_96" data-name="Path 96" d="M68.418,6.187c.421.441.687.692.921.97a1.38,1.38,0,0,1-.028,2.013,1.351,1.351,0,0,1-1.938-.035c-1.151-1.1-2.275-2.231-3.379-3.379a1.291,1.291,0,0,1-.005-1.933Q65.63,2.089,67.362.44A1.344,1.344,0,0,1,69.37.46a1.374,1.374,0,0,1-.024,1.946c-.235.276-.5.529-.9.958h1.181q11.293,0,22.586,0a4.4,4.4,0,0,1,1.117.068,1.3,1.3,0,0,1,1.059,1.448,1.294,1.294,0,0,1-1.247,1.283,7.467,7.467,0,0,1-.936.021H68.418" transform="translate(-50.947 0)" />
    </g>
  </g>
</svg>
