<svg xmlns="http://www.w3.org/2000/svg" xmlns:xlink="http://www.w3.org/1999/xlink" width="45.777" height="42.197" viewBox="0 0 45.777 42.197">
  <defs>
    <clipPath id="clip-path">
      <rect id="Rectangle_202" data-name="Rectangle 202" width="45.777" height="42.197" fill="none"/>
    </clipPath>
  </defs>
  <g id="Group_70" data-name="Group 70" transform="translate(0 0)">
    <g id="Group_69" data-name="Group 69" transform="translate(0 0)" clip-path="url(#clip-path)">
      <path id="Path_105" data-name="Path 105" d="M0,16.273V11.538c.079-.421.133-.848.241-1.261q1.2-4.571,2.426-9.136A1.423,1.423,0,0,1,4.3,0H41.412a1.5,1.5,0,0,1,1.738,1.357c.5,1.867,1.017,3.728,1.491,5.6a40.248,40.248,0,0,1,1.027,4.559,29.474,29.474,0,0,1,.072,4.147,5.655,5.655,0,0,1-3.667,5.227.61.61,0,0,0-.466.7q.02,7.5.007,15.007a5.443,5.443,0,0,1-5.582,5.6q-13.154,0-26.308,0a5.654,5.654,0,0,1-.934-.054,5.452,5.452,0,0,1-4.657-5.486q-.015-7.57,0-15.141a.534.534,0,0,0-.414-.6A5.592,5.592,0,0,1,.316,17.424C.182,17.051.1,16.657,0,16.273m10,3.09a5.656,5.656,0,0,1-2.583,1.65.5.5,0,0,0-.437.576c.013,4.989.006,9.977.011,14.966a2.6,2.6,0,0,0,2.8,2.781q3.283,0,6.567,0c.157,0,.314-.014.505-.023,0-.22,0-.4,0-.573,0-3.172-.025-6.344.025-9.515a4.241,4.241,0,0,1,3.735-4.092c1.4-.133,2.824-.054,4.237-.06a2.5,2.5,0,0,1,.572.09,4.413,4.413,0,0,1,3.452,4.459c.013,3.052,0,6.105,0,9.158v.512a1.192,1.192,0,0,0,.188.041c2.427,0,4.854.018,7.281-.011a2.506,2.506,0,0,0,2.333-2.053,4.558,4.558,0,0,0,.066-.8c0-4.944,0-9.888.012-14.832A.545.545,0,0,0,38.292,21a5.313,5.313,0,0,1-2.273-1.363c-.092-.089-.189-.172-.29-.264a5.766,5.766,0,0,1-8.568,0,5.807,5.807,0,0,1-8.577.036A5.809,5.809,0,0,1,10,19.364M42.428,9.829c-.017-.091-.025-.163-.044-.233-.553-2.083-1.117-4.163-1.652-6.251-.1-.388-.261-.5-.663-.5q-12.194.021-24.387.011c-3.365,0-6.729,0-10.094-.006-.317,0-.47.071-.547.407-.186.811-.425,1.609-.639,2.413C4.036,7.05,3.672,8.427,3.3,9.829ZM19.72,39.311H26c.01-.1.024-.168.024-.239,0-3.186.008-6.371,0-9.557a1.549,1.549,0,0,0-1.607-1.61c-.938-.017-1.876-.005-2.813,0-1.3,0-1.88.583-1.881,1.882q0,4.51,0,9.021v.508M2.866,12.723c0,1.057-.041,2.069.01,3.076a2.837,2.837,0,0,0,2.6,2.617A2.723,2.723,0,0,0,8.46,16.233a26.477,26.477,0,0,0,.032-3.51Zm8.571-.006c0,.989-.012,1.938,0,2.886a2.856,2.856,0,0,0,5.712-.008c.014-.862,0-1.724,0-2.587a1.9,1.9,0,0,0-.045-.291Zm8.577.009c0,.168,0,.286,0,.4,0,.877-.026,1.756.012,2.631a2.854,2.854,0,0,0,2.519,2.649,2.744,2.744,0,0,0,3.056-2.1,29.232,29.232,0,0,0,.176-3.588Zm8.586,0c0,1.058-.041,2.07.01,3.077a2.84,2.84,0,0,0,2.554,2.612,2.739,2.739,0,0,0,3.014-2.1,29.369,29.369,0,0,0,.178-3.593Zm14.274.018h-5.7c0,.987-.014,1.938,0,2.889a2.851,2.851,0,0,0,2.663,2.787,2.815,2.815,0,0,0,3.021-2.541c.081-1.032.015-2.075.015-3.135" transform="translate(0.001 0)" />
    </g>
  </g>
</svg>
