<svg xmlns="http://www.w3.org/2000/svg" xmlns:xlink="http://www.w3.org/1999/xlink" width="40.326" height="40.327" viewBox="0 0 40.326 40.327">
  <defs>
    <clipPath id="clip-path">
      <rect id="Rectangle_189" data-name="Rectangle 189" width="40.326" height="40.327" fill="none"/>
    </clipPath>
  </defs>
  <g id="Group_59" data-name="Group 59" transform="translate(0 0)">
    <g id="Group_58" data-name="Group 58" transform="translate(0 0)" clip-path="url(#clip-path)">
      <path id="Path_88" data-name="Path 88" d="M98.819,97.909a22.192,22.192,0,0,1-4.536-2.794,14.11,14.11,0,0,1-4.562-6,10.152,10.152,0,0,1-.665-3.538c-.008-2.27,0-4.54,0-6.811a1.259,1.259,0,0,1,.978-1.346c2.851-.972,5.7-1.953,8.56-2.9a1.807,1.807,0,0,1,1.063-.007c2.873.949,5.732,1.938,8.6,2.9a1.516,1.516,0,0,1,.961.961v7.955c-.119.6-.2,1.211-.362,1.8a13.228,13.228,0,0,1-4.442,6.629,21.464,21.464,0,0,1-4.962,3.147Zm7.816-15.037h.06c0-.984-.012-1.969.007-2.953a.435.435,0,0,0-.353-.5c-2.31-.774-4.615-1.566-6.925-2.34a.946.946,0,0,0-.561,0c-2.323.778-4.639,1.576-6.962,2.355a.409.409,0,0,0-.335.47q.021,2.678,0,5.355a8.339,8.339,0,0,0,1.238,4.451,15.328,15.328,0,0,0,6.141,5.436.527.527,0,0,0,.426-.022,17.233,17.233,0,0,0,4.606-3.456,8.973,8.973,0,0,0,2.637-5.371c.094-1.133.017-2.28.017-3.421" transform="translate(-68.889 -57.583)" />
      <path id="Path_89" data-name="Path 89" d="M0,17.647Q0,11.228,0,4.81A4.624,4.624,0,0,1,4.81,0H23.75a4.631,4.631,0,0,1,4.82,4.8q.007,4.371,0,8.742a1.31,1.31,0,0,1-.985,1.421,1.253,1.253,0,0,1-1.532-1.329c-.005-2.783,0-5.565,0-8.348a7.026,7.026,0,0,0-.035-.943,2.065,2.065,0,0,0-2.08-1.825c-1.877-.01-3.754,0-5.631,0H4.877A2.131,2.131,0,0,0,2.52,4.885V30.4a2.132,2.132,0,0,0,2.356,2.365q6.4,0,12.8,0A1.264,1.264,0,0,1,18.98,34.44a1.251,1.251,0,0,1-1.169.842c-.577.012-1.155,0-1.732,0q-5.631,0-11.262,0A4.624,4.624,0,0,1,0,30.483q0-6.418,0-12.837" transform="translate(0 0)" />
      <path id="Path_90" data-name="Path 90" d="M31.518,59.4c2.624,0,5.248,0,7.871,0a1.245,1.245,0,0,1,1.3,1.584,1.187,1.187,0,0,1-.876.872,2.088,2.088,0,0,1-.545.059q-7.773,0-15.546,0a1.953,1.953,0,0,1-.69-.114,1.234,1.234,0,0,1-.757-1.367A1.255,1.255,0,0,1,23.45,59.4c.144-.008.288,0,.433,0h7.635" transform="translate(-17.213 -45.95)" />
      <path id="Path_91" data-name="Path 91" d="M28.118,91.577q-2.222,0-4.444,0a1.267,1.267,0,1,1,0-2.519q4.523,0,9.045,0a1.259,1.259,0,0,1,.307,2.488,2.281,2.281,0,0,1-.469.029q-2.222,0-4.444,0" transform="translate(-17.229 -68.893)" />
      <path id="Path_92" data-name="Path 92" d="M27.284,32.173c-1.207,0-2.414,0-3.621,0a1.264,1.264,0,1,1-.008-2.516q3.661-.008,7.322,0a1.288,1.288,0,0,1,1.36,1.063,1.243,1.243,0,0,1-.813,1.371,1.985,1.985,0,0,1-.618.08c-1.207.007-2.414,0-3.621,0" transform="translate(-17.228 -22.938)" />
      <path id="Path_93" data-name="Path 93" d="M115.808,109.972l1.538-2.048q1.275-1.7,2.549-3.4a1.264,1.264,0,1,1,2.027,1.49q-2.448,3.277-4.909,6.544a1.25,1.25,0,0,1-2.027.145q-1.621-1.607-3.227-3.228a1.262,1.262,0,1,1,1.78-1.78c.746.737,1.482,1.484,2.268,2.273" transform="translate(-86.121 -80.384)" />
    </g>
  </g>
</svg>
