<svg id="Group_66" data-name="Group 66" xmlns="http://www.w3.org/2000/svg" xmlns:xlink="http://www.w3.org/1999/xlink" width="43.596" height="43.607" viewBox="0 0 43.596 43.607">
  <defs>
    <clipPath id="clip-path">
      <rect id="Rectangle_200" data-name="Rectangle 200" width="43.596" height="43.607" fill="none"/>
    </clipPath>
  </defs>
  <g id="Group_65" data-name="Group 65" clip-path="url(#clip-path)">
    <path id="Path_97" data-name="Path 97" d="M43.6,117.027a1.642,1.642,0,0,1-1.715.948q-20.132-.024-40.264-.011c-1.171,0-1.618-.446-1.618-1.617q0-9.257,0-18.514c0-1.112.464-1.579,1.572-1.579q20.153,0,40.306-.011a1.653,1.653,0,0,1,1.718.945Zm-10.261-9.62.094-.027c.079.114.161.228.238.344.921,1.379,1.837,2.762,2.764,4.137a1.279,1.279,0,0,0,2.377-.684q.015-4.064,0-8.128A1.271,1.271,0,1,0,36.266,103c-.019,1.163-.005,2.326-.008,3.489,0,.115-.016.23-.032.436-.14-.2-.224-.309-.3-.425-.913-1.368-1.822-2.738-2.739-4.1a1.284,1.284,0,0,0-1.575-.588,1.317,1.317,0,0,0-.829,1.393q-.005,3.894,0,7.787a2.973,2.973,0,0,0,.023.382,1.235,1.235,0,0,0,1.242,1.111,1.22,1.22,0,0,0,1.257-1.091,9.009,9.009,0,0,0,.03-1.019c0-.989,0-1.978,0-2.967m-20.527-.491A6.53,6.53,0,0,0,12,103.938a3.945,3.945,0,0,0-6.648-.638,6.4,6.4,0,0,0,.123,7.735,3.8,3.8,0,0,0,6.1-.157,6.152,6.152,0,0,0,1.238-3.962m4.116,2.873c.444-.028.812-.042,1.179-.076a3.89,3.89,0,0,0,3.579-3.781,3.82,3.82,0,0,0-3.085-4.056,16.094,16.094,0,0,0-2.709-.148,1.309,1.309,0,0,0-1.516,1.5q0,3.872,0,7.745a3.529,3.529,0,0,0,.017.425,1.2,1.2,0,0,0,.928,1.04,1.266,1.266,0,0,0,1.605-1.276c.019-.45,0-.9,0-1.373m8.9-5.513c.706,0,1.384.01,2.061,0a1.272,1.272,0,1,0,.046-2.542q-1.7-.041-3.4,0a1.26,1.26,0,0,0-1.276,1.318q-.013,4.064,0,8.127a1.253,1.253,0,0,0,1.237,1.311q1.743.046,3.488,0a1.212,1.212,0,0,0,1.227-1.128,1.23,1.23,0,0,0-1.239-1.407c-.7-.018-1.411,0-2.137,0v-1.558c.462,0,.9,0,1.336,0a1.285,1.285,0,0,0,1.187-.614,1.255,1.255,0,0,0-.985-1.918c-.5-.039-1.014-.007-1.542-.007Z" transform="translate(0 -74.368)" />
    <path id="Path_98" data-name="Path 98" d="M38.385,0c.16.049.32.1.482.145a4.022,4.022,0,0,1,2.66,5.3.512.512,0,0,0,.149.652Q48.095,12.5,54.5,18.915c.11.11.233.206.423.372-.205.023-.307.043-.409.043-.936,0-1.873-.01-2.809.008a.884.884,0,0,1-.7-.294q-5.544-5.562-11.1-11.116a.573.573,0,0,0-.727-.165,3.741,3.741,0,0,1-2.822-.013A.514.514,0,0,0,35.7,7.9q-5.559,5.577-11.127,11.146a.886.886,0,0,1-.7.294c-1.031-.018-2.064-.007-3.179-.007.153-.167.25-.28.355-.385Q27.46,12.535,33.876,6.13a.57.57,0,0,0,.162-.725A4.03,4.03,0,0,1,36.915.088C37.01.067,37.1.03,37.193,0Z" transform="translate(-15.991)" />
    <path id="Path_99" data-name="Path 99" d="M32.911,134.439a3.493,3.493,0,0,1-.709,2.226,1.273,1.273,0,0,1-2.183-.006,3.821,3.821,0,0,1,.005-4.414,1.268,1.268,0,0,1,2.156-.024,3.458,3.458,0,0,1,.73,2.218" transform="translate(-22.656 -101.714)"/>
    <path id="Path_100" data-name="Path 100" d="M74.587,134.5V131.6c.746-.049,1.464-.082,1.933.611a1.407,1.407,0,0,1,.037,1.606c-.451.743-1.186.715-1.97.676" transform="translate(-57.634 -101.673)" />
  </g>
</svg>
