<svg id="Group_53" data-name="Group 53" xmlns="http://www.w3.org/2000/svg" xmlns:xlink="http://www.w3.org/1999/xlink" width="45.122" height="42.357" viewBox="0 0 45.122 42.357">
  <defs>
    <clipPath id="clip-path">
      <rect id="Rectangle_186" data-name="Rectangle 186" width="45.122" height="42.357" fill="none"/>
    </clipPath>
  </defs>
  <g id="Group_52" data-name="Group 52" clip-path="url(#clip-path)">
    <path id="Path_78" data-name="Path 78" d="M45.122,15.007c-1.2,3.07-2.358,6.154-3.6,9.206a3.9,3.9,0,0,1-5.259,2.227q-3.588-1.39-7.145-2.861a3.931,3.931,0,0,1-2.4-4.943c.023-.083.046-.165.066-.235-1.7-.834-3.385-1.662-5.073-2.473a2.437,2.437,0,0,0-.676-.087c.072.183.107.3.16.406,1.323,2.651,2.644,5.3,3.983,7.945a.954.954,0,0,0,.5.42c1.927.661,3.863,1.3,5.794,1.944a3.958,3.958,0,0,1,2.91,4.031A3.909,3.909,0,0,1,30.3,34.334a6.251,6.251,0,0,1-1.457-.3c-2.342-.763-4.664-1.588-7.016-2.318a4.682,4.682,0,0,1-3.154-2.767c-.084-.2-.2-.392-.3-.585-.012-.022-.046-.033-.1-.07l-1.218.812c.075.159.139.3.209.442,1.152,2.326,2.318,4.645,3.454,6.979a3.958,3.958,0,0,1-2.3,5.644,3.892,3.892,0,0,1-4.547-1.7c-.6-1.041-1.1-2.138-1.636-3.215q-1.864-3.741-3.719-7.486a4.01,4.01,0,0,1,1.472-5.485c1.573-1.052,3.148-2.1,4.767-3.179l-1.267-2.535c-.4.389-.77.73-1.113,1.1a4.523,4.523,0,0,1-3.622,1.482c-1.746-.046-3.5.009-5.24-.074a3.934,3.934,0,0,1,.368-7.843c1.129-.051,2.261-.007,3.392-.026a.81.81,0,0,0,.507-.179c.786-.75,1.552-1.522,2.323-2.288a1.506,1.506,0,0,0,.125-.178,5.279,5.279,0,0,1-4.3-2.86,5.054,5.054,0,0,1-.332-4.058A5.3,5.3,0,0,1,12.356.289a5.355,5.355,0,0,1,2.876,7.624c.176.008.326.02.477.02,2.188,0,4.377.01,6.565,0a4.846,4.846,0,0,1,2.245.527c1.587.794,3.183,1.569,4.776,2.351.13.064.262.121.437.2.114-.277.216-.53.321-.782a3.959,3.959,0,0,1,5.3-2.315c2.407.929,4.8,1.9,7.187,2.877a3.886,3.886,0,0,1,2.519,3.139.4.4,0,0,0,.061.113Zm-39.078.855v.005c-.7,0-1.41-.011-2.115,0a1.229,1.229,0,0,0-1.2.866,1.326,1.326,0,0,0,1.4,1.762c1.645.012,3.29,0,4.935.005a1.676,1.676,0,0,0,1.258-.526c.8-.8,1.609-1.589,2.418-2.38a1.363,1.363,0,0,1,2.41.387q1.184,2.359,2.362,4.722a1.417,1.417,0,0,1-.552,2.105q-2.765,1.845-5.533,3.688a1.413,1.413,0,0,0-.562,2.07q1.251,2.523,2.509,5.042c.882,1.773,1.756,3.549,2.647,5.317A1.313,1.313,0,0,0,18.5,38.1a2.583,2.583,0,0,0-.229-.568q-2-4.042-4-8.081a1.384,1.384,0,0,1,.551-2.032q2.782-1.86,5.568-3.715a1.406,1.406,0,0,0,.543-2.072Q18.411,16.6,15.891,11.56a1.372,1.372,0,0,0-2.463-.391c-1.4,1.384-2.8,2.766-4.19,4.159a1.7,1.7,0,0,1-1.3.537c-.631-.011-1.263,0-1.895,0M29.15,19.724a1.362,1.362,0,0,0,.877,1.376q3.63,1.458,7.265,2.9a1.3,1.3,0,0,0,1.794-.78q1.646-4.075,3.265-8.161a1.3,1.3,0,0,0-.792-1.821q-3.585-1.452-7.18-2.879a1.324,1.324,0,0,0-1.856.806c-.248.6-.5,1.19-.709,1.8a1.583,1.583,0,0,0-.064.757,3.792,3.792,0,0,1-1.5,3.963c-.763.566-.81,1.4-1.1,2.039m-8.6,7.062c.213.431.432.83.611,1.246A1.872,1.872,0,0,0,22.4,29.118c2.438.792,4.865,1.616,7.3,2.426a3.118,3.118,0,0,0,.595.151,1.288,1.288,0,0,0,1.453-1.288A1.316,1.316,0,0,0,30.715,29.1Q27.445,28,24.17,26.914A1.649,1.649,0,0,1,23.108,26c-.116-.256-.258-.5-.374-.724l-2.18,1.509M18.368,10.6a13.7,13.7,0,0,1,.8,1.645,1.276,1.276,0,0,0,1.593.987,4.307,4.307,0,0,1,2.73.61c1.222.663,2.49,1.243,3.742,1.852a1.3,1.3,0,0,0,1.416-.091,1.255,1.255,0,0,0,.525-1.272,1.315,1.315,0,0,0-.806-1.025q-2.584-1.269-5.168-2.539a1.231,1.231,0,0,0-.5-.16c-1.42-.013-2.84-.007-4.339-.007M10.605,2.651a2.637,2.637,0,1,0,2.642,2.61,2.634,2.634,0,0,0-2.642-2.61" transform="translate(0 0)" />
    <path id="Path_79" data-name="Path 79" d="M150.773,65.654c0,.5.009.893,0,1.287a1.318,1.318,0,1,1-2.633.037c-.022-.407,0-.817,0-1.32a13.246,13.246,0,0,1-1.52-.011,1.3,1.3,0,0,1,.107-2.583c.451-.021.9,0,1.412,0,0-.467-.016-.874,0-1.28a1.313,1.313,0,0,1,1.357-1.367,1.268,1.268,0,0,1,1.262,1.171,6.915,6.915,0,0,1,.012,1.056c-.025.342.11.436.431.415a7.514,7.514,0,0,1,1.012.009,1.271,1.271,0,0,1,1.2,1.237,1.244,1.244,0,0,1-1.075,1.341,14.343,14.343,0,0,1-1.561.011" transform="translate(-113.647 -47.188)" />
  </g>
</svg>
