<svg xmlns="http://www.w3.org/2000/svg" xmlns:xlink="http://www.w3.org/1999/xlink" width="47.521" height="47.547" viewBox="0 0 47.521 47.547">
  <defs>
    <clipPath id="clip-path">
      <rect id="Rectangle_188" data-name="Rectangle 188" width="47.521" height="47.547" fill="none"/>
    </clipPath>
  </defs>
  <g id="Group_62" data-name="Group 62" transform="translate(0 0)">
    <g id="Group_56" data-name="Group 56" transform="translate(0 0)" clip-path="url(#clip-path)">
      <path id="Path_83" data-name="Path 83" d="M47.473,33.556A3.106,3.106,0,0,0,46.2,31.509a3.329,3.329,0,0,0-2.512-.615,3.213,3.213,0,0,0-.578.167,11.319,11.319,0,0,0,2.108-6.593c0-.018,0-.038.005-.057a.714.714,0,0,0-.088-.494,9.16,9.16,0,0,0-.913-3.973,10.916,10.916,0,0,0-6.183-5.879,11.418,11.418,0,0,0-6-.64,3.641,3.641,0,0,0-.465.117l-.167.049A8.954,8.954,0,0,0,18.564,1.644,8.5,8.5,0,0,0,15.093,6.67a8.757,8.757,0,0,0,1.044,6.917,12.4,12.4,0,0,0-3.527-.255,11.553,11.553,0,0,0-4.2,1.229,11.031,11.031,0,0,0-5.344,6,12.265,12.265,0,0,0-.7,2.766l-.008.264a12.522,12.522,0,0,0,.3,3.724,11.566,11.566,0,0,0,2.726,4.951,12.066,12.066,0,0,0,1.44,1.3H1.482c-1.3,0-1.469.163-1.48,1.451v.046a.792.792,0,0,0,.19.591.793.793,0,0,0,.591.191H.8c1.737-.01,3.474-.009,5.211-.009H8.162a3.011,3.011,0,0,0,.486-.05,6.317,6.317,0,0,0,3.628-2.025,3.261,3.261,0,0,1,2.411-1.033c3.041-.031,6.136-.02,9.127-.009h.236c.578,0,.758.27.842.472a.8.8,0,0,1-.043.769.95.95,0,0,1-.817.383q-3.056,0-6.112,0H15.543c-1.323,0-1.475.149-1.486,1.448v.042a.689.689,0,0,0,.78.793c.207,0,.412-.007.612-.017a3.238,3.238,0,0,1,1.336.112l2.03.778c2.012.769,4.091,1.564,6.121,2.382a4.4,4.4,0,0,0,3.788-.068c.816-.394,1.671-.754,2.5-1.1.293-.123.586-.247.879-.372,1.333-.57,2.651-1.148,4.219-1.838.3-.134.611-.266.917-.4.782-.338,1.592-.688,2.374-1.071.24-.118.491-.214.757-.317a9.387,9.387,0,0,0,.876-.373c.792-.4,1.644-.779,2.607-1.154a1.047,1.047,0,0,1,.9,1.888c-.782.444-1.591.876-2.373,1.294l-.4.215q-1.095.586-2.192,1.167t-2.194,1.168q-.868.464-1.733.934-1.009.545-2.02,1.087-.8.427-1.608.846c-.917.479-1.864.975-2.786,1.485A16.4,16.4,0,0,1,25.553,45,9.241,9.241,0,0,1,21,45.044c-2.23-.566-4.482-1.214-6.659-1.84q-1.033-.3-2.067-.592a10.52,10.52,0,0,0-3.132-.474c-1.829.03-3.691.024-5.492.018q-1.106,0-2.212,0c-1.249,0-1.41.155-1.435,1.384v.055a.848.848,0,0,0,.194.637.855.855,0,0,0,.647.2q2.376-.012,4.753-.009,2.064,0,4.127-.006a3.721,3.721,0,0,1,.955.111c.851.227,1.713.474,2.548.713,1.031.295,2.1.6,3.156.873.556.143,1.12.313,1.665.476a21.774,21.774,0,0,0,3.593.858,13.137,13.137,0,0,0,1.609.1,12.733,12.733,0,0,0,2.623-.275,15.862,15.862,0,0,0,4.163-1.722l.556-.294c.906-.475,1.819-.972,2.7-1.453.619-.338,1.239-.676,1.861-1.008q1.817-.972,3.637-1.939c2.166-1.153,4.406-2.345,6.6-3.533a3.344,3.344,0,0,0,2.085-3.765M20.98,19.383a10.247,10.247,0,0,1,1.437,3.188,1.375,1.375,0,0,1,.027.229,1.389,1.389,0,0,0,.126.566c-.016.313,0,.62.011.919a8.1,8.1,0,0,1,0,.981,9.225,9.225,0,0,1-2.1,5.153c-.015.019-.02.024-.163.021l-.091,0h-.72q-2.249,0-4.5,0h-.025A5.8,5.8,0,0,0,10.524,32.3c-.045.049-.094.095-.143.14a2.9,2.9,0,0,0-.208.209c-.119.136-.205.174-.436.055a9.189,9.189,0,0,1-4.925-6.142,8.439,8.439,0,0,1-.185-2.166c0-.322,0-.654-.016-.985.04-.16.077-.321.114-.482.089-.384.173-.747.293-1.1A9.039,9.039,0,0,1,9.27,16.6a9.233,9.233,0,0,1,3.464-1,8.5,8.5,0,0,1,3.679.407,8.339,8.339,0,0,1,4.567,3.372m-.794-14.2c.034-.034.068-.069.1-.1a2.466,2.466,0,0,1,.187-.182.573.573,0,0,0,.229-.409.636.636,0,0,0-.207-.465c-.178-.187-.355-.386-.525-.58a6.778,6.778,0,0,1,2.534-1.084c.063-.016.108-.025.142-.03,0,.038.007.094.007.172,0,1.123.156,1.285,1.251,1.331l.088,0a.943.943,0,0,0,.732-.208.964.964,0,0,0,.213-.749c-.006-.171-.014-.389-.006-.522.123.025.32.083.512.14l.024.007a7.967,7.967,0,0,1,2.165.982h0c-.188.164-.36.336-.542.518-.081.081-.163.163-.249.247l-.263.255.264.254c.094.09.187.178.278.263.2.189.392.368.565.557a.715.715,0,0,0,.555.279.745.745,0,0,0,.537-.3,1.546,1.546,0,0,1,.134-.136c.028-.027.056-.053.091-.089.084-.084.17-.17.236-.231.05.073.112.173.173.272l.026.041a7.868,7.868,0,0,1,.911,2.386h0c-.711.02-1.067.03-1.309.3s-.211.638-.147,1.364l0,.024a.581.581,0,0,0,.665.583c.119,0,.239,0,.358,0,.14,0,.285,0,.432,0a6.759,6.759,0,0,1-5.3,5.44.7.7,0,0,1-.126.018c0-.248,0-.5.007-.751a.723.723,0,0,0-.178-.575.639.639,0,0,0-.453-.165c-.04,0-.073,0-.095,0a2.782,2.782,0,0,1-.369-.009,1.424,1.424,0,0,0-.943.151c-.353.252-.3.712-.255,1.048.013.1.024.2.026.278a5.759,5.759,0,0,1-2.609-1c-.05-.031-.1-.063-.149-.1.427-.364.684-.6.7-.936.017-.352-.233-.61-.688-1.079l-.029-.03a.822.822,0,0,0-.652-.323.735.735,0,0,0-.514.345l-.007.007c-.13.129-.312.31-.421.394A5.675,5.675,0,0,1,18,12.277a7.083,7.083,0,0,1-.806-2.21l.078,0a2.012,2.012,0,0,1,.331.019c.327.035.775.084.965-.3a2.077,2.077,0,0,0,.123-1.061c-.008-.134-.015-.26-.012-.377a.532.532,0,0,0-.143-.4.625.625,0,0,0-.476-.155h-.37c-.174,0-.348,0-.523,0a7.762,7.762,0,0,1,1.086-2.629.877.877,0,0,1,.076-.1.9.9,0,0,1,.1.1c.311.343.536.59.853.6H19.3c.3,0,.512-.208.884-.58m7,28.881.009-.053c.018-.111.036-.224.049-.338a11.274,11.274,0,0,0,5.093,2.084l-.282.118c-.229.095-.455.189-.679.289h0c-.964.432-1.932.856-2.9,1.28l-.97.425a1.7,1.7,0,0,1-1.39.017c-1-.4-2.015-.784-3-1.158l-.285-.108h1.4a3.076,3.076,0,0,0,2.956-2.553m-.15-3.724a9.541,9.541,0,0,1-1.56-2.639,10.425,10.425,0,0,1-.535-4.366l.023-.1a10.787,10.787,0,0,1,.9-2.709,8.674,8.674,0,0,1,6.447-4.807,8.844,8.844,0,0,1,8.177,2.653,8.509,8.509,0,0,1,2.3,4.6,4.955,4.955,0,0,1,.053.647c.007.19.015.386.04.586l.022.085a2.079,2.079,0,0,1,0,1.122c-.025.142-.049.284-.065.424A8.542,8.542,0,0,1,41.5,29.413a8.04,8.04,0,0,1-3.479,3.114,14.219,14.219,0,0,1-2.133.824,7.542,7.542,0,0,1-2.795.192,8.9,8.9,0,0,1-6.059-3.208m-3.894-7.1Z" transform="translate(0 0)" />
      <path id="Path_84" data-name="Path 84" d="M120.545,84.215h1.26a3.737,3.737,0,0,1,.649.029,3.386,3.386,0,0,1,0,.6.952.952,0,0,0,.209.736.871.871,0,0,0,.645.213l.1,0,.077,0c1.115-.042,1.277-.22,1.241-1.355-.009-.308.02-.353.286-.437a2.381,2.381,0,0,0,1.4-1.222,2.556,2.556,0,0,0,.184-1.9,3.2,3.2,0,0,0-.366-1.369c.742-.091.849-.366.848-1.353,0-.03,0-.059,0-.089a.706.706,0,0,1,0-.112.617.617,0,0,0-.136-.515.677.677,0,0,0-.536-.183c-.193.007-.385.005-.578,0s-.394,0-.591,0h-.034a11.258,11.258,0,0,0-.186-1.149c-.029-.145-.057-.29-.084-.434a2.644,2.644,0,0,0-2.2-2.245,8.928,8.928,0,0,0-1.2-.062c-.233,0-.454,0-.677-.015a.754.754,0,0,0-.163-.562,1.009,1.009,0,0,0-.877-.223,2.4,2.4,0,0,1-.464,0,.716.716,0,0,0-.637.174.7.7,0,0,0-.156.615,14.182,14.182,0,0,0-1.445,0,2.645,2.645,0,0,0-2.614,1.969,9.56,9.56,0,0,0-.3,1.628l-.021.169c-.012.093-.028.131-.026.136a.383.383,0,0,1-.121,0c-.291-.021-.581-.015-.861-.009l-.241,0h-.032a.563.563,0,0,0-.433.13.479.479,0,0,0-.146.357c0,.11-.006.222-.011.335A3.208,3.208,0,0,0,112.4,79.2c.1.335.434.362.681.35a2.811,2.811,0,0,0-.347,1.294.787.787,0,0,0-.113.295,2.746,2.746,0,0,0,1.569,2.8c.483.148.538.313.476.8a1.055,1.055,0,0,0,0,.182.367.367,0,0,1,0,.06.712.712,0,0,0,.131.58.746.746,0,0,0,.581.216h.04c.649.006,1,.009,1.254-.239s.255-.619.256-1.284c0-.022,0-.04,0-.055h.043c1.192.012,2.4.011,3.575.009m3.822-2.434a.678.678,0,0,1-.536.161q-2.927,0-5.853,0h-2.2c-.421,0-.668-.048-.757-.147s-.1-.324-.065-.7c.011-.043.021-.086.031-.128.023-.1.046-.193.076-.287.1-.3.234-.364.422-.364h2.1q3.108,0,6.216,0c.156,0,.48,0,.533.766l.015.079a.761.761,0,0,1,.009.621m-8.031-3.742.052-.3c.093-.542.18-1.053.254-1.574h0c.05-.353.228-.533.529-.535,1.917-.01,3.5-.01,4.973,0,.406,0,.446.037.53.46.09.45.174.9.258,1.351l.113.6q-1.876-.007-3.756-.006h-2.954Z" transform="translate(-85.76 -55.408)" />
      <path id="Path_85" data-name="Path 85" d="M30.177,76.192a.648.648,0,0,0-.693.54l-.079.294a15.458,15.458,0,0,0-.781,5.484.718.718,0,0,0,.244.544.623.623,0,0,0,.508.093l.043-.007a1.24,1.24,0,0,1,0,.131c-.016.308-.007.616,0,.914,0,.123.007.247.009.37l-.006.3c0,.23-.009.461-.009.691a.734.734,0,0,0-.58.175.912.912,0,0,0-.2.8,1.651,1.651,0,0,1,0,.439.8.8,0,0,0,.136.646.856.856,0,0,0,.686.236h.012c2.824-.01,5.695-.01,8.473-.009h2.383c.694,0,1.042,0,1.292-.256s.24-.606.222-1.3v-.033a.649.649,0,0,1,0-.074.554.554,0,0,0-.175-.483.544.544,0,0,0-.486-.109.712.712,0,0,1-.122.017,2.237,2.237,0,0,1,0-.3c.008-.182,0-.361-.006-.534,0-.073-.006-.146-.007-.206,0-.127.005-.253.009-.38.008-.3.017-.6,0-.91a1.268,1.268,0,0,1,0-.134l.051.006.057-.35-.038.353a.629.629,0,0,0,.539-.1.527.527,0,0,0,.175-.428c0-.244.005-.488.015-.746a6.9,6.9,0,0,0-.07-1.652c-.159-.787-.362-1.574-.559-2.334-.092-.357-.184-.714-.272-1.071a.725.725,0,0,0-.759-.621h0c-3.21.01-6.481.011-10,0Zm1.86,2.794a5.619,5.619,0,0,0-.291,1.9c-.09,0-.177,0-.261,0l-.151,0h-.041a1.422,1.422,0,0,1-.441-.04,1.422,1.422,0,0,1,.062-.444c.1-.44.215-.879.326-1.317l.144-.571a.5.5,0,0,1,.015-.049h.009a7.155,7.155,0,0,0,.765.008c-.042.172-.089.343-.137.514m2.071,5.157q0,.2.006.4l0,.045c0,.041-.006.082-.011.124a2.314,2.314,0,0,0,.021.5,1.346,1.346,0,0,1,.015.369,1.451,1.451,0,0,1-.485.006c-.117-.01-.239-.02-.356-.02h-.018c-.219,0-.439,0-.659,0-.312,0-.624,0-.936,0,.006-.239,0-.477-.006-.707,0-.1-.006-.206-.007-.309,0-.14,0-.28.006-.421.006-.322.012-.654.006-.984.8.01,1.618.01,2.421,0-.005.333,0,.668.006.992m1.866-3.266c-.124,0-.247,0-.369,0s-.241,0-.361,0h-.3c-.221,0-.443,0-.664,0-.1,0-.184,0-.256,0,0-.049.006-.1.009-.156l.006-.1a6.267,6.267,0,0,1,.285-1.355c.074-.256.15-.521.21-.8l.068,0h.029a2.751,2.751,0,0,1,1.171.082,2.693,2.693,0,0,1,.358,1.106l.089.391c.064.279.128.559.185.839-.154-.008-.308-.011-.46-.011m.392,2.274c.8.01,1.618.01,2.421,0-.005.333,0,.668.006.992,0,.134,0,.268.006.4l0,.045c0,.041-.006.082-.011.124a2.344,2.344,0,0,0,.021.5,1.358,1.358,0,0,1,.015.369,1.444,1.444,0,0,1-.485.006c-.117-.01-.239-.02-.356-.02h-.018c-.219,0-.439,0-.659,0-.312,0-.624,0-.936,0,.006-.239,0-.477-.007-.707,0-.1-.005-.206-.007-.309,0-.138,0-.275.006-.413.006-.324.012-.659.006-.992M39.4,80.884c-.105,0-.208.008-.314.017a1.454,1.454,0,0,1-.4,0c0-.042.008-.1.014-.147a1.247,1.247,0,0,0-.008-.469c-.135-.519-.269-1.037-.408-1.573l-.062-.241c.264,0,.518,0,.778,0,.1.4.2.8.3,1.2.087.343.174.685.257,1.029.019.078.029.133.035.171a1.6,1.6,0,0,1-.185.007" transform="translate(-21.83 -58.182)" />
      <path id="Path_86" data-name="Path 86" d="M86.574,26.327c.211.2.41.38.6.578a.662.662,0,0,0,.455.231h.009a.68.68,0,0,0,.472-.233c.685-.674,1.414-1.375,2.166-2.085a1.087,1.087,0,0,0,.36-.859c-.01-.65-.008-1.312-.007-1.953v-.772c0-.688,0-1.034-.252-1.283s-.611-.245-1.266-.238h-.04a.646.646,0,0,0-.72.754c.008.471.007.941.006,1.412s0,.944.006,1.415a.445.445,0,0,1-.16.376c-.459.445-.9.891-1.372,1.363l-.79.793.265.25c.089.084.179.167.269.251" transform="translate(-65.703 -15.052)" />
      <path id="Path_87" data-name="Path 87" d="M105.772,43.985a1.138,1.138,0,0,1-.3.144c-.266.1-.631.243-.7.651a1.663,1.663,0,0,0,.221.947c.048.107.094.208.127.3a1.356,1.356,0,0,0,.075.178l.314-.164-.307.178a.506.506,0,0,0,.457.322.692.692,0,0,0,.273-.063,6.126,6.126,0,0,0,3.216-3.167.674.674,0,0,0,.042-.53.518.518,0,0,0-.3-.284c-.282-.105-.56-.2-.855-.292l-.356-.117-.082-.017c-.337-.03-.572.166-.7.58" transform="translate(-79.999 -32.126)" />
    </g>
  </g>
</svg>
