<svg id="Group_2" data-name="Group 2" xmlns="http://www.w3.org/2000/svg" xmlns:xlink="http://www.w3.org/1999/xlink" width="122" height="30.684" viewBox="0 0 122 30.684">
  <defs>
    <clipPath id="clip-path">
      <rect id="Rectangle_1" data-name="Rectangle 1" width="122" height="30.684" fill="none"/>
    </clipPath>
  </defs>
  <g id="Group_1" data-name="Group 1" clip-path="url(#clip-path)">
    <path id="Path_1" data-name="Path 1" d="M168.032,35.748a6.786,6.786,0,0,1,2.752.567,7.037,7.037,0,0,1,4.316,6.447,6.857,6.857,0,0,1-.567,2.779,6.951,6.951,0,0,1-1.51,2.266,7.232,7.232,0,0,1-2.239,1.511,7.081,7.081,0,0,1-2.752.54,5.075,5.075,0,0,1-3.318-1.079V48.75l1.349-2.482.027.027a3.617,3.617,0,0,0,1.483.324,3.829,3.829,0,0,0,2.7-1.106,3.831,3.831,0,0,0,1.133-2.752,3.705,3.705,0,0,0-1.133-2.67,3.831,3.831,0,0,0-2.7-1.106,3.705,3.705,0,0,0-2.7,1.106,3.782,3.782,0,0,0-.809,1.214,3.575,3.575,0,0,0-.3,1.457V54.847h-3.642V35.964h3.642V37.8a4.9,4.9,0,0,1,4.262-2.05" transform="translate(-121.883 -27.21)" fill="#040405"/>
    <path id="Path_2" data-name="Path 2" d="M242.137,35.964V49.452H238.6V42.708a3.581,3.581,0,0,0-.3-1.457,3.648,3.648,0,0,0-.836-1.187,3.444,3.444,0,0,0-1.214-.782,3.514,3.514,0,0,0-1.43-.3,3.577,3.577,0,0,0-1.457.3,4.212,4.212,0,0,0-1.214.809,3.48,3.48,0,0,0-.809,1.187,3.573,3.573,0,0,0-.3,1.457,3.508,3.508,0,0,0,.3,1.43,3.868,3.868,0,0,0,.809,1.187,4.216,4.216,0,0,0,1.214.809,3.577,3.577,0,0,0,1.457.3,3.171,3.171,0,0,0,1.43-.3h.027v.054l1.349,2.4-.027.027a5.166,5.166,0,0,1-3.264,1.025,6.816,6.816,0,0,1-2.7-.54,6.935,6.935,0,0,1-2.212-1.484,7.329,7.329,0,0,1-1.511-2.212,7.081,7.081,0,0,1,0-5.422,7.33,7.33,0,0,1,1.511-2.212,6.935,6.935,0,0,1,2.212-1.484,6.537,6.537,0,0,1,2.7-.566,5.308,5.308,0,0,1,2.455.539A5,5,0,0,1,238.6,37.8V35.964Z" transform="translate(-173.073 -27.21)" fill="#040405"/>
    <path id="Path_3" data-name="Path 3" d="M297.593,48.3l-4.721-11.654h3.857v.027l3.48,9.792Zm10.332-11.654-.027.054q-.459,1.241-.89,2.428-.431,1.16-.809,2.185-1.349,3.777-2.428,6.5a20.309,20.309,0,0,1-2.266,4.4,7.6,7.6,0,0,1-2.752,2.536,8.231,8.231,0,0,1-3.8.782H294.9V51.865h.054q.7,0,1.241-.054a3.572,3.572,0,0,0,1.025-.243,2.607,2.607,0,0,0,.836-.486,3.3,3.3,0,0,0,.755-.809,8.624,8.624,0,0,0,.7-1.187q.35-.7.728-1.672t.836-2.239q.459-1.295,1.025-2.913.432-1.214.917-2.59t1.052-2.994v-.027Z" transform="translate(-222.922 -27.897)" fill="#040405"/>
    <path id="Path_4" data-name="Path 4" d="M368.222,19.3a6.817,6.817,0,0,1,2.7.54,6.888,6.888,0,0,1,3.7,3.7,6.708,6.708,0,0,1,0,5.4,6.888,6.888,0,0,1-3.7,3.7,6.817,6.817,0,0,1-2.7.54,4.87,4.87,0,0,1-4.235-2.05v1.835h-3.561V14.063h3.588V26.229a3.575,3.575,0,0,0,.3,1.457,3.531,3.531,0,0,0,1.969,1.969,3.766,3.766,0,0,0,1.484.3,3.509,3.509,0,0,0,1.43-.3,3.69,3.69,0,0,0,1.187-.782,3.867,3.867,0,0,0,.809-1.187,3.727,3.727,0,0,0,0-2.913,3.869,3.869,0,0,0-.809-1.187,3.183,3.183,0,0,0-1.187-.782,3.505,3.505,0,0,0-1.43-.3,3.829,3.829,0,0,0-1.457.3l-.027.027-.027-.054-1.322-2.428.027-.027a5.166,5.166,0,0,1,3.264-1.025" transform="translate(-274.341 -10.704)" fill="#040405"/>
    <path id="Path_5" data-name="Path 5" d="M427.818,19.457h3.588V32.945h-3.588Zm0-5.4h3.588v3.156h-3.588Z" transform="translate(-325.637 -10.703)" fill="#040405"/>
    <path id="Path_6" data-name="Path 6" d="M449.685,14.062h3.561V32.945h-3.588Z" transform="translate(-342.261 -10.704)" fill="#040405"/>
    <path id="Path_7" data-name="Path 7" d="M480.024,26.964v2.994h-2l-1.672-2.994ZM475.9,34.437a1.432,1.432,0,0,0,.432,1.052,1.523,1.523,0,0,0,1.079.432h2.617V39.05h-2.617a5.326,5.326,0,0,1-2-.378,4.961,4.961,0,0,1-2.7-2.7,4.825,4.825,0,0,1-.4-1.969V29.959h-1.942V26.964h1.942V22.082H475.9Z" transform="translate(-358.024 -16.808)" fill="#040405"/>
    <path id="Path_8" data-name="Path 8" d="M0,3.6V30.683L6.1,16.988a4.02,4.02,0,0,1,3.677-2.395H12.53A7.3,7.3,0,1,0,12.53,0H3.605A3.605,3.605,0,0,0,0,3.6" transform="translate(0 0.001)" fill="#040405"/>
    <path id="Path_9" data-name="Path 9" d="M20.4,59.717,2.75,76.138H18.423a8.341,8.341,0,0,0,8.237-7.828,8.254,8.254,0,0,0-5.394-8.274Z" transform="translate(-2.093 -45.454)" fill="#040405"/>
  </g>
</svg>
