<svg xmlns="http://www.w3.org/2000/svg" width="91.655" height="71.313" viewBox="0 0 91.655 71.313">
  <g id="Group_450" data-name="Group 450" transform="translate(0 0)">
    <path id="Path_429" data-name="Path 429" d="M5619.818,2594.307v-4.722a2.8,2.8,0,0,0-2.96-2.99,2.913,2.913,0,0,0-2.644,1.338,2.761,2.761,0,0,0-2.486-1.338,2.486,2.486,0,0,0-2.2,1.117v-.927h-1.639v7.523h1.652v-4.171a1.76,1.76,0,0,1,1.843-2c1.085,0,1.635.708,1.635,1.983v4.187h1.653v-4.171a1.775,1.775,0,0,1,1.841-2c1.117,0,1.652.708,1.652,1.983v4.187Zm24.458-7.523H5641.6V2584.5h-1.653v2.282h-1.526v1.5h1.526v3.431c0,1.746.677,2.785,2.611,2.785a3.838,3.838,0,0,0,2.047-.582l-.473-1.4a3.018,3.018,0,0,1-1.447.426c-.818,0-1.085-.5-1.085-1.259v-3.4h2.675Zm13.959-.189a2.216,2.216,0,0,0-1.982,1.1v-.913h-1.621v7.523h1.635v-4.217c0-1.245.535-1.937,1.6-1.937a2.65,2.65,0,0,1,1.023.189l.5-1.542a3.489,3.489,0,0,0-1.166-.206m-21.1.787a5.633,5.633,0,0,0-3.068-.787c-1.906,0-3.132.913-3.132,2.409,0,1.227.913,1.983,2.595,2.219l.774.11c.9.126,1.32.362,1.32.787,0,.582-.6.913-1.715.913a4,4,0,0,1-2.5-.787l-.771,1.273a5.423,5.423,0,0,0,3.257.977c2.171,0,3.432-1.023,3.432-2.455,0-1.322-.991-2.014-2.629-2.25l-.771-.111c-.708-.094-1.275-.234-1.275-.739,0-.551.536-.881,1.432-.881a4.859,4.859,0,0,1,2.347.645Zm43.847-.787a2.221,2.221,0,0,0-1.983,1.1v-.913h-1.622v7.523h1.638v-4.217c0-1.245.536-1.937,1.606-1.937a2.648,2.648,0,0,1,1.022.189l.5-1.542a3.484,3.484,0,0,0-1.166-.206m-21.089,3.951a3.8,3.8,0,0,0,4.014,3.95,3.938,3.938,0,0,0,2.706-.9l-.785-1.323a3.306,3.306,0,0,1-1.969.677,2.413,2.413,0,0,1,0-4.817,3.306,3.306,0,0,1,1.969.677l.785-1.322a3.938,3.938,0,0,0-2.706-.9,3.8,3.8,0,0,0-4.014,3.951m15.329,0v-3.761h-1.637v.913a2.852,2.852,0,0,0-2.376-1.1,3.955,3.955,0,0,0,0,7.9,2.852,2.852,0,0,0,2.376-1.1v.913h1.637Zm-6.091,0a2.278,2.278,0,1,1,2.283,2.408,2.258,2.258,0,0,1-2.283-2.408m-19.751-3.951a3.954,3.954,0,0,0,.11,7.9,4.569,4.569,0,0,0,3.084-1.054l-.8-1.212a3.6,3.6,0,0,1-2.189.787,2.09,2.09,0,0,1-2.25-1.843h5.586c.017-.2.033-.409.033-.629-.016-2.345-1.464-3.951-3.573-3.951m-.032,1.465a1.868,1.868,0,0,1,1.9,1.825h-3.9a1.936,1.936,0,0,1,2-1.825m41.063,2.486v-6.782h-1.638v3.934a2.85,2.85,0,0,0-2.376-1.1,3.955,3.955,0,0,0,0,7.9,2.85,2.85,0,0,0,2.376-1.1v.913h1.638Zm-6.093,0a2.278,2.278,0,1,1,2.282,2.408,2.257,2.257,0,0,1-2.282-2.408m-55.274,0v-3.761H5627.4v.913a2.852,2.852,0,0,0-2.376-1.1,3.955,3.955,0,0,0,0,7.9,2.852,2.852,0,0,0,2.376-1.1v.913h1.636Zm-6.09,0a2.278,2.278,0,1,1,2.283,2.408,2.258,2.258,0,0,1-2.283-2.408m70.185,2.671a.749.749,0,0,1,.3.06.74.74,0,0,1,.241.16.73.73,0,0,1,.163.238.731.731,0,0,1,0,.58.769.769,0,0,1-.163.238.8.8,0,0,1-.241.16.741.741,0,0,1-.3.06.754.754,0,0,1-.3-.06.773.773,0,0,1-.243-.16.786.786,0,0,1-.163-.238.742.742,0,0,1,0-.58.746.746,0,0,1,.163-.238.719.719,0,0,1,.243-.16.763.763,0,0,1,.3-.06m0,1.331a.546.546,0,0,0,.225-.047.6.6,0,0,0,.184-.124.575.575,0,0,0,.124-.186.582.582,0,0,0-.308-.764.574.574,0,0,0-.225-.043.6.6,0,0,0-.229.043.564.564,0,0,0-.31.31.6.6,0,0,0,0,.454.565.565,0,0,0,.123.186.591.591,0,0,0,.187.124.573.573,0,0,0,.229.047m.044-.933a.319.319,0,0,1,.206.059.2.2,0,0,1,.072.162.188.188,0,0,1-.057.142.287.287,0,0,1-.165.068l.228.261h-.177l-.211-.26H5693v.26h-.147v-.694Zm-.173.13v.186h.171a.175.175,0,0,0,.093-.023.079.079,0,0,0,.035-.07.075.075,0,0,0-.035-.068.159.159,0,0,0-.093-.024Z" transform="translate(-5603.223 -2523.399)" fill="#fff"/>
    <path id="Path_430" data-name="Path 430" d="M6512.375,2416.76v-.912h.367v-.185h-.937v.185h.368v.912Zm1.817,0v-1.1h-.286l-.332.755-.33-.755h-.288v1.1h.2v-.829l.31.715h.211l.31-.717v.83Z" transform="translate(-6423.401 -2370.871)" fill="#b5b5b6"/>
    <rect id="Rectangle_446" data-name="Rectangle 446" width="24.79" height="44.553" transform="translate(33.431 6.064)" fill="#c9c9c9"/>
    <path id="Path_431" data-name="Path 431" d="M5592.561,1960.535a28.289,28.289,0,0,1,10.821-22.276,28.335,28.335,0,1,0,0,44.553,28.289,28.289,0,0,1-10.821-22.276" transform="translate(-5557.542 -1932.199)" fill="#b5b5b6"/>
    <path id="Path_432" data-name="Path 432" d="M6097.915,1960.535a28.332,28.332,0,0,1-45.841,22.276,28.337,28.337,0,0,0,0-44.553,28.332,28.332,0,0,1,45.841,22.276" transform="translate(-6006.259 -1932.199)" fill="#dadada"/>
  </g>
</svg>
