<svg id="Group_449" data-name="Group 449" xmlns="http://www.w3.org/2000/svg" width="77.919" height="50.61" viewBox="0 0 77.919 50.61">
  <path id="Path_390" data-name="Path 390" d="M2971.981,2060.824l-5.087-19.145-7.23-5.355h12.719l3.347,16.735,6.158-16.735h6.694l-9.907,24.5Z" transform="translate(-2959.664 -2035.934)" fill="#fff"/>
  <path id="Path_391" data-name="Path 391" d="M3189.267,2060.824h-6.292l3.883-24.5h6.426Z" transform="translate(-3155.395 -2035.934)" fill="#fff"/>
  <path id="Path_392" data-name="Path 392" d="M3272.456,2058.449a19.059,19.059,0,0,1-7.1-1.339l.948-5.489.8.412a12.852,12.852,0,0,0,6.025,1.339c1.874,0,3.749-.8,3.749-2.41,0-1.071-.8-1.875-3.347-3.079-2.41-1.205-5.623-3.09-5.49-6.694,0-4.82,4.418-8.033,10.711-8.033a14.383,14.383,0,0,1,5.623,1.071l-.8,5.355-.536-.268a11.154,11.154,0,0,0-4.7-.948c-2.544,0-3.615,1.071-3.615,2.142,0,1.2,1.339,1.874,3.615,3.079,3.615,1.741,5.355,3.883,5.355,6.694-.268,4.953-4.552,8.167-11.246,8.167" transform="translate(-3227.606 -2033.156)" fill="#fff"/>
  <path id="Path_393" data-name="Path 393" d="M3429.045,2061.919l-5.088-24.511H3419c-1.607,0-2.678.4-3.347,2.008l-9.372,22.492h6.694s1.071-3.079,1.339-3.749h8.167c.268.8.8,3.615.8,3.615v.01Zm-12.853-8.846c.536-1.473.536-1.339,2.544-6.828-.134.134.536-1.339.8-2.276l.4,2.008s1.205,5.891,1.473,7.1Z" transform="translate(-3351.125 -2036.884)" fill="#fff"/>
  <path id="Path_394" data-name="Path 394" d="M2996.725,2288.1a13.481,13.481,0,0,1-.669,4.151,10.012,10.012,0,0,1-2.008,3.213,7.68,7.68,0,0,1-3.079,2.008,9.752,9.752,0,0,1-4.016.669h-7.776v-20.082h7.5a12.606,12.606,0,0,1,4.016.669,10.21,10.21,0,0,1,3.09,2.008,8.142,8.142,0,0,1,2.009,3.213,12.888,12.888,0,0,1,.937,4.15m-2.811,0a8.8,8.8,0,0,0-.535-3.347,7.29,7.29,0,0,0-1.473-2.41,7,7,0,0,0-2.276-1.606,7.208,7.208,0,0,0-2.945-.536h-4.83V2296h4.82a7.211,7.211,0,0,0,2.945-.536,6.678,6.678,0,0,0,2.276-1.473,7.291,7.291,0,0,0,1.473-2.41,10.485,10.485,0,0,0,.535-3.481Z" transform="translate(-2976.766 -2247.817)" fill="#fff"/>
  <path id="Path_395" data-name="Path 395" d="M3149.491,2276.517a1,1,0,0,1-.134.669,1.854,1.854,0,0,1-.412.535c-.134.268-.268.268-.536.412a1.2,1.2,0,0,1-.67.134,1,1,0,0,1-.669-.134,1.845,1.845,0,0,1-.536-.412c-.134-.134-.268-.4-.4-.535a1.207,1.207,0,0,1-.134-.669,1,1,0,0,1,.134-.67,1.853,1.853,0,0,1,.4-.535c.134-.134.4-.268.536-.4a1.2,1.2,0,0,1,.669-.134,1,1,0,0,1,.67.134,1.868,1.868,0,0,1,.536.4c.134.134.268.4.412.535s.134.4.134.67m-.535,18.61h-2.544v-14.192h2.544Z" transform="translate(-3122.982 -2244.933)" fill="#fff"/>
  <path id="Path_396" data-name="Path 396" d="M3205.74,2338.044v-14.325h1.472c.268,0,.4,0,.536.134s.134.268.268.536l.134,2.276a7.84,7.84,0,0,1,1.74-2.276,4.119,4.119,0,0,1,2.544-.8,2.607,2.607,0,0,1,1.071.134c.268.134.669.268.937.4l-.268,1.874a.429.429,0,0,1-.4.4,1.785,1.785,0,0,1-.67-.134,2.972,2.972,0,0,0-1.2-.134,2.827,2.827,0,0,0-2.142.8,6.692,6.692,0,0,0-1.473,2.142v9.1h-2.544Z" transform="translate(-3175.348 -2287.716)" fill="#fff"/>
  <path id="Path_397" data-name="Path 397" d="M3295.977,2323.582a7.579,7.579,0,0,1,2.409.4,5.613,5.613,0,0,1,1.874,1.2,5.038,5.038,0,0,1,1.205,2.009,8.627,8.627,0,0,1,.4,2.677c0,.412,0,.669-.134.8s-.268.134-.536.134h-9.372a6.5,6.5,0,0,0,.4,2.41,4.63,4.63,0,0,0,.937,1.606,3.063,3.063,0,0,0,1.339.937,4.26,4.26,0,0,0,1.875.268,4.992,4.992,0,0,0,1.617-.268,4.755,4.755,0,0,0,1.2-.535,4.163,4.163,0,0,0,.8-.536c.267-.134.4-.268.535-.268a.7.7,0,0,1,.536.268l.67.937a3.61,3.61,0,0,1-1.071.937,6.228,6.228,0,0,1-1.339.669c-.4.134-.937.268-1.473.412a2.4,2.4,0,0,1-1.741.535,5.988,5.988,0,0,1-2.677-.535,4.756,4.756,0,0,1-2.142-1.473,7.289,7.289,0,0,1-1.473-2.41,8.111,8.111,0,0,1-.535-3.213,10.187,10.187,0,0,1,.391-2.822,7.852,7.852,0,0,1,1.339-2.276,5.093,5.093,0,0,1,2.142-1.473,8.909,8.909,0,0,1,2.812-.4m0,1.741a3.835,3.835,0,0,0-2.812,1.071,5.5,5.5,0,0,0-1.339,2.946h7.765a6.716,6.716,0,0,0-.268-1.607,2.589,2.589,0,0,0-.669-1.2,2.08,2.08,0,0,0-1.071-.8,3.179,3.179,0,0,0-1.606-.4" transform="translate(-3248.583 -2287.712)" fill="#fff"/>
  <path id="Path_398" data-name="Path 398" d="M3418.21,2327.271l-.268.268c-.134,0-.134.134-.268.134a.491.491,0,0,1-.412-.134,2.935,2.935,0,0,0-.669-.4,6.5,6.5,0,0,0-.937-.4,4.126,4.126,0,0,0-1.339-.134,4.28,4.28,0,0,0-1.874.4,5.24,5.24,0,0,0-1.339,1.071,4.154,4.154,0,0,0-.8,1.74,9.8,9.8,0,0,0,0,4.552,6.925,6.925,0,0,0,.8,1.741,5.255,5.255,0,0,0,1.339,1.071,3.705,3.705,0,0,0,1.74.4,4.128,4.128,0,0,0,1.473-.268,2.156,2.156,0,0,0,.937-.535c.268-.268.536-.4.669-.536a1.015,1.015,0,0,1,.535-.268.7.7,0,0,1,.536.268l.68.948a4.478,4.478,0,0,1-2.276,1.607,7.212,7.212,0,0,1-2.945.535,5.433,5.433,0,0,1-2.544-.535,5.591,5.591,0,0,1-2.008-1.473,6.411,6.411,0,0,1-1.339-2.276,11.4,11.4,0,0,1-.536-3.079,10.44,10.44,0,0,1,.4-2.946,4.325,4.325,0,0,1,1.339-2.276,4.136,4.136,0,0,1,2.142-1.473,6.082,6.082,0,0,1,2.812-.535,6,6,0,0,1,2.678.535,5.3,5.3,0,0,1,2.008,1.339Z" transform="translate(-3352.073 -2288.724)" fill="#fff"/>
  <path id="Path_399" data-name="Path 399" d="M3517.159,2306.8a3.149,3.149,0,0,1-2.544-.937,4.027,4.027,0,0,1-.937-2.678v-8.7h-1.741a.475.475,0,0,1-.536-.4.5.5,0,0,1,0-.133v-.937l2.277-.268.535-4.418c0-.134.134-.268.134-.4a.493.493,0,0,1,.4-.134h1.2v4.954h4.017v1.874h-4.017v8.568a2,2,0,0,0,.4,1.339,1.52,1.52,0,0,0,1.071.412,1,1,0,0,0,.669-.134c.134-.134.4-.134.536-.268s.268-.134.4-.268.134-.134.268-.134.268.134.4.268l.669,1.2a4.626,4.626,0,0,1-1.607.937c-.268.258-.937.258-1.606.258" transform="translate(-3443.256 -2256.342)" fill="#fff"/>
</svg>
