<svg id="Group_328" data-name="Group 328" xmlns="http://www.w3.org/2000/svg" xmlns:xlink="http://www.w3.org/1999/xlink" width="54.639" height="59.281" viewBox="0 0 54.639 59.281">
  <defs>
    <clipPath id="clip-path">
      <rect id="Rectangle_136" data-name="Rectangle 136" width="54.639" height="59.281" fill="none"/>
    </clipPath>
  </defs>
  <g id="Group_34" data-name="Group 34" clip-path="url(#clip-path)">
    <path id="Path_38" data-name="Path 38" d="M15.224,443h11.03c.468,0,.936-.008,1.4-.009a1.309,1.309,0,0,0,1.166-.649c.178-.282.335-.577.5-.868,2.674-4.752,10.258-4.735,12.894-.021.13.233.284.454.4.691a1.467,1.467,0,0,0,1.455.855c1.2-.017,2.406-.012,3.61-.011,1.27,0,2.54.012,3.81.009a4.264,4.264,0,0,1,1.573.254,2.319,2.319,0,0,1,1.587,2.306,2.348,2.348,0,0,1-1.577,2.318,4.478,4.478,0,0,1-1.775.226c-2.206,0-4.413.038-6.617-.021a2.224,2.224,0,0,0-2.267,1.256,6.991,6.991,0,0,1-5.357,3.783c-3.193.427-5.875-.513-7.6-3.309-1.168-1.891-1.319-1.71-3.2-1.712q-11.13-.006-22.26,0a11.815,11.815,0,0,1-1.8-.064A2.455,2.455,0,0,1,.018,445.56,2.409,2.409,0,0,1,2,443.136,8.53,8.53,0,0,1,3.794,443c3.81-.011,7.62-.006,11.431-.006Zm20.519,5.139a2.62,2.62,0,0,0,2.647-2.641,2.687,2.687,0,0,0-2.567-2.545,2.587,2.587,0,0,0-2.61,2.662,2.549,2.549,0,0,0,2.53,2.524" transform="translate(-0.016 -393.934)"/>
    <path id="Path_39" data-name="Path 39" d="M14.979,5.169c3.743,0,7.487.008,11.23,0,1.547-.005,2.044.33,3.222-1.682C31.283.319,34.589-.47,37.786.243a6.634,6.634,0,0,1,4.052,2.751c.308.435.571.9.852,1.355a1.616,1.616,0,0,0,1.5.817c.8-.014,1.6-.011,2.406-.01,1.6,0,3.209,0,4.813.014a6.939,6.939,0,0,1,1.4.106,2.36,2.36,0,0,1,1.852,2.505,2.321,2.321,0,0,1-1.89,2.271,8.522,8.522,0,0,1-1.6.1c-2.072.01-4.147.06-6.216-.021a2.491,2.491,0,0,0-2.6,1.409,6.836,6.836,0,0,1-3.853,3.33,7.608,7.608,0,0,1-9.136-3.052,4.655,4.655,0,0,1-.307-.516,1.961,1.961,0,0,0-2.126-1.158c-.466.028-.936.005-1.4.006q-10.729,0-21.458,0a16.584,16.584,0,0,1-1.8-.047A2.388,2.388,0,0,1,.025,7.724,2.422,2.422,0,0,1,2.346,5.205a15.808,15.808,0,0,1,1.6-.041q5.515,0,11.03,0Zm20.865,5.065a2.63,2.63,0,0,0,2.569-2.567A2.629,2.629,0,0,0,35.646,5.1a2.514,2.514,0,0,0-2.423,2.66,2.523,2.523,0,0,0,2.62,2.47" transform="translate(-0.022 0)"/>
    <path id="Path_40" data-name="Path 40" d="M39.341,228.856c-3.743,0-7.487.049-11.229-.027a2.681,2.681,0,0,0-2.727,1.485,7.377,7.377,0,0,1-8.814,3.367,6.983,6.983,0,0,1-3.7-2.6,4.6,4.6,0,0,1-.648-1.008,1.985,1.985,0,0,0-2.247-1.23c-2.137.065-4.277.028-6.416.019a8.067,8.067,0,0,1-1.6-.1A2.379,2.379,0,0,1,0,226.328a2.311,2.311,0,0,1,2.007-2.374,10.483,10.483,0,0,1,1.8-.114c2.139-.014,4.278-.028,6.417,0A1.821,1.821,0,0,0,11.906,223a17.193,17.193,0,0,1,1.36-1.733,7.506,7.506,0,0,1,12.041.917,5.726,5.726,0,0,1,.4.694,1.62,1.62,0,0,0,1.609.97c.535,0,1.069,0,1.6,0q10.829,0,21.657,0c.534,0,1.073-.019,1.6.034a2.39,2.39,0,0,1,2.456,2.582c-.053,1.434-1.014,2.305-2.662,2.393-.467.025-.936.011-1.4.011H39.341ZM21.489,226.3a2.693,2.693,0,0,0-2.731-2.58,2.649,2.649,0,0,0-2.435,2.656,2.543,2.543,0,0,0,2.712,2.534,2.572,2.572,0,0,0,2.454-2.61" transform="translate(0 -196.702)"/>
  </g>
</svg>
