<svg id="Group_627" data-name="Group 627" xmlns="http://www.w3.org/2000/svg" xmlns:xlink="http://www.w3.org/1999/xlink" width="53.998" height="55.438" viewBox="0 0 53.998 55.438">
  <defs>
    <clipPath id="clip-path">
      <rect id="Rectangle_135" data-name="Rectangle 135" width="53.999" height="55.438" fill="none"/>
    </clipPath>
  </defs>
  <g id="Group_32" data-name="Group 32" clip-path="url(#clip-path)">
    <path id="Path_36" data-name="Path 36" d="M0,346.85a3.838,3.838,0,0,1,.833-.963q2.593-2.661,5.2-5.31c.179-.183.355-.37.535-.551a.545.545,0,0,0,.075-.7c-.174-.342-.356-.68-.516-1.029a11.209,11.209,0,0,1-.337-8.834,9.107,9.107,0,0,1,1.965-3.269c2.668-2.766,5.36-5.509,8.046-8.258a2.5,2.5,0,0,1,.356-.247c.872.618,1.442,1.551,2.238,2.229.375.019.524-.277.722-.478,1.286-1.31,2.56-2.633,3.846-3.943.313-.319.45-.328.749-.036,1.034,1.008,2.056,2.029,3.15,3.111l-4.509,4.554a.921.921,0,0,0,.4.7q1.46,1.439,2.928,2.869c.524.513.533.637,1.189-.06.7-.746,1.424-1.474,2.139-2.208q.8-.825,1.617-1.644a.385.385,0,0,1,.56-.075c.364.277,2.757,2.712,3.179,3.258-1.522,1.587-3.1,3.137-4.622,4.716.055.433.4.58.622.815s.5.464.748.7c1.235,1.183,1.3.877.015,2.2q-3.081,3.168-6.183,6.317c-.419.426-.844.849-1.3,1.233a10.913,10.913,0,0,1-11.733,1.9c-.512-.2-1.015-.42-1.522-.631a5.117,5.117,0,0,0-1.309,1.2c-1.974,2.01-3.931,4.037-5.895,6.058a3.051,3.051,0,0,1-1.031-.93A18.462,18.462,0,0,1,0,346.85" transform="translate(0 -295.026)"/>
    <path id="Path_37" data-name="Path 37" d="M418.766,3.485c-.344.344-1.226,1.432-2.959,3.2-.179.183-.355.37-.535.551a.545.545,0,0,0-.075.7c.174.342.356.68.516,1.029a11.208,11.208,0,0,1,.337,8.834,9.105,9.105,0,0,1-1.965,3.269c-2.668,2.766-5.36,5.509-8.046,8.258a2.492,2.492,0,0,1-.356.247c-.872-.618-14.712-14.269-14.959-14.505-1.235-1.183-1.3-.877-.015-2.2q3.081-3.168,6.183-6.317c.419-.426.844-.849,1.3-1.233a10.913,10.913,0,0,1,11.733-1.9c.512.2,1.015.42,1.522.631a5.119,5.119,0,0,0,1.309-1.2c1.974-2.01.8-.837,2.759-2.858,1.522,1.522,1.357,1.444,3.249,3.485" transform="translate(-364.767)"/>
  </g>
</svg>
