<svg id="Group_626" data-name="Group 626" xmlns="http://www.w3.org/2000/svg" xmlns:xlink="http://www.w3.org/1999/xlink" width="61.5" height="51.51" viewBox="0 0 61.5 51.51">
  <defs>
    <clipPath id="clip-path">
      <rect id="Rectangle_132" data-name="Rectangle 132" width="61.5" height="51.51" fill="none"/>
    </clipPath>
  </defs>
  <g id="Group_26" data-name="Group 26" clip-path="url(#clip-path)">
    <path id="Path_32" data-name="Path 32" d="M26.176,47.672q-10.434,0-20.868,0c-.556,0-1.116.02-1.668-.035A3.676,3.676,0,0,1,.171,44.56a7.078,7.078,0,0,1-.134-1.487C.028,30.231.058,17.389,0,4.548-.014,1.638,1.672-.032,4.5,0c4.4.051,8.792.03,13.188,0A4.812,4.812,0,0,1,22.044,2.29c.763,1.16,1.611,2.265,2.412,3.4,1.279,1.813,1.09,1.562,2.972,1.564q9.6.009,19.2,0c.5,0,1,0,1.5.017a3.689,3.689,0,0,1,3.654,3.766c-.034,2,0,4,0,6,0,.445-.011.89,0,1.334.023.787.106.887.842.9.946.02,1.892,0,2.838.013a14.342,14.342,0,0,1,1.667.068A4.942,4.942,0,0,1,61.5,24.247a4.011,4.011,0,0,1-.486,1.745c-1.639,3.4-3.272,6.81-4.934,10.2-1.491,3.043-3.015,6.07-4.524,9.1-.173.348-.34.7-.524,1.042A2.331,2.331,0,0,1,48.88,47.67c-.445,0-.89.008-1.335.008H26.176ZM5.025,43.906a2.444,2.444,0,0,0,1.293.128q20.114.014,40.229.013c.334,0,.668-.006,1-.011a.872.872,0,0,0,.819-.471c.13-.245.256-.493.38-.741Q53.023,34.248,57.3,25.67a6.211,6.211,0,0,0,.456-1.069A1.166,1.166,0,0,0,56.77,23a10.213,10.213,0,0,0-1.663-.082q-10.767-.009-21.533-.007c-5.675,0-11.351.029-17.026-.03a2.667,2.667,0,0,0-2.836,1.805c-.571,1.385-1.239,2.731-1.875,4.09Q8.591,35.717,5.347,42.662c-.177.381-.526.745-.322,1.244m-1.36-6.851A2.336,2.336,0,0,0,4.6,35.709c1.921-4.071,3.819-8.153,5.726-12.23.212-.453.424-.907.656-1.35a5.066,5.066,0,0,1,4.26-2.805c.608-.058,1.223-.041,1.835-.041q14.446,0,28.892,0c.445,0,.891.008,1.336-.006.68-.021.8-.115.8-.76q.02-3.42,0-6.84c0-.7-.09-.778-.756-.8-.445-.016-.891-.009-1.336-.009-6.457,0-12.915-.014-19.372.022A5.01,5.01,0,0,1,22,8.493c-.835-1.312-1.836-2.518-2.683-3.823A2.166,2.166,0,0,0,17.24,3.616c-3.9.044-7.793.018-11.69.024-2.07,0-1.883-.186-1.884,1.875q0,14.015,0,28.029Z" transform="translate(0.001 0)"/>
    <path id="Path_33" data-name="Path 33" d="M241.483,366.238l-.154-2.637a6.137,6.137,0,0,0-.768-2.646,6.413,6.413,0,0,0-5.274-3.4c-4.92-.377-6.516,2.414-7,3.794a23.758,23.758,0,0,0-.549,4.914s-2.038.937-2.038,2.839v6.776a3.081,3.081,0,0,0,3.271,3.284h10.724s3.549.005,3.549-3.089V369.09s.073-2.214-1.76-2.852m-3.847-.558h-6.287a.561.561,0,0,1-.56-.566,5.854,5.854,0,0,1,.6-2.858,3.589,3.589,0,0,1,4.359-1.66c2.381.6,2.508,3.37,2.45,4.55a.56.56,0,0,1-.56.534" transform="translate(-206.843 -327.648)"/>
  </g>
</svg>
