<svg id="Group_329" data-name="Group 329" xmlns="http://www.w3.org/2000/svg" xmlns:xlink="http://www.w3.org/1999/xlink" width="47.696" height="59.281" viewBox="0 0 47.696 59.281">
  <defs>
    <clipPath id="clip-path">
      <rect id="Rectangle_142" data-name="Rectangle 142" width="47.696" height="59.281" fill="none"/>
    </clipPath>
  </defs>
  <g id="Group_46" data-name="Group 46" clip-path="url(#clip-path)">
    <path id="Path_69" data-name="Path 69" d="M48.5,75.472c-.349-.095-.7-.18-1.045-.286a6.888,6.888,0,0,1-4.207-3.394c-1.2-2.221-2.382-4.449-3.617-6.758-.379.715-.721,1.372-1.074,2.022a18.075,18.075,0,0,1-1.213,2.164A6.321,6.321,0,0,1,29.7,70.9a7.059,7.059,0,0,1-4.212-6.176c-.018-.211-.018-.424-.018-.636q0-14.758,0-29.517A6.893,6.893,0,0,1,30.8,27.622,6.462,6.462,0,0,1,36.408,28.7c5.231,3.858,10.434,7.753,15.644,11.639a2.317,2.317,0,0,1-.986,4.176,2.483,2.483,0,0,1-1.98-.61q-5.47-4.086-10.95-8.158Q36,34.154,33.87,32.559A2.331,2.331,0,0,0,30.1,34.427q-.009,4.37,0,8.739,0,10.476,0,20.952A2.6,2.6,0,0,0,32,66.831a1.541,1.541,0,0,0,1.883-.819c1.171-2.236,2.352-4.467,3.506-6.711a2.372,2.372,0,0,1,4.439,0c1.8,3.408,3.622,6.8,5.442,10.2a2.384,2.384,0,0,0,2.428,1.327,2.353,2.353,0,0,0,1.975-1.719,2.457,2.457,0,0,0-.3-1.941c-1.784-3.154-3.548-6.318-5.334-9.471a2.338,2.338,0,0,1-.072-2.518,2.266,2.266,0,0,1,2.08-1.131c2.489,0,4.979-.013,7.467.008a2.388,2.388,0,0,0,1.92-4.007,2.311,2.311,0,1,1,3.527-2.979,7,7,0,0,1-5.209,11.6c-1.244.036-2.491.006-3.822.006.176.331.3.583.442.83q1.515,2.7,3.033,5.392a6.967,6.967,0,0,1-4.851,10.473.863.863,0,0,0-.2.1Z" transform="translate(-15.048 -16.19)"/>
    <path id="Path_70" data-name="Path 70" d="M25.3,8.709a2.387,2.387,0,0,1-1.6,2.22,2.186,2.186,0,0,1-2.607-.845c-.805-1.334-1.567-2.7-2.248-4.1A2.291,2.291,0,0,1,22.859,3.83c.8,1.316,1.506,2.688,2.228,4.048a3.506,3.506,0,0,1,.208.831" transform="translate(-11.02 -1.673)"/>
    <path id="Path_71" data-name="Path 71" d="M8.331,26.924A2.3,2.3,0,0,1,5.4,29.343a41.329,41.329,0,0,1-4.227-1.836,2.217,2.217,0,0,1-.95-2.939A2.248,2.248,0,0,1,3.062,23.35c1.377.541,2.732,1.143,4.067,1.78a2.051,2.051,0,0,1,1.2,1.793" transform="translate(0 -13.71)"/>
    <path id="Path_72" data-name="Path 72" d="M50.083,2.491a2.8,2.8,0,0,1-.092.478c-.43,1.317-.847,2.638-1.313,3.942a2.3,2.3,0,0,1-4.448-.421A2.373,2.373,0,0,1,44.3,5.468c.412-1.322.842-2.64,1.312-3.943A2.29,2.29,0,0,1,48.2.042a2.35,2.35,0,0,1,1.886,2.449" transform="translate(-26.121 0)"/>
    <path id="Path_73" data-name="Path 73" d="M68.892,17.507a2.285,2.285,0,0,1-.919,1.929c-1.03.779-2.061,1.557-3.114,2.3a2.309,2.309,0,1,1-2.744-3.712c1.04-.8,2.092-1.58,3.162-2.336a2.157,2.157,0,0,1,2.4-.13,2.2,2.2,0,0,1,1.21,1.945" transform="translate(-36.124 -9.016)"/>
    <path id="Path_74" data-name="Path 74" d="M8.668,51.228a2.1,2.1,0,0,1-1.312,1.857c-1.233.54-2.484,1.048-3.751,1.5A2.271,2.271,0,0,1,.728,53.218a2.256,2.256,0,0,1,1.2-2.9c1.216-.532,2.447-1.038,3.7-1.481a2.321,2.321,0,0,1,3.048,2.4" transform="translate(-0.337 -28.777)"/>
  </g>
</svg>
