<svg id="Group_327" data-name="Group 327" xmlns="http://www.w3.org/2000/svg" xmlns:xlink="http://www.w3.org/1999/xlink" width="59" height="59.282" viewBox="0 0 59 59.282">
  <defs>
    <clipPath id="clip-path">
      <rect id="Rectangle_133" data-name="Rectangle 133" width="59" height="59.282" fill="none"/>
    </clipPath>
  </defs>
  <g id="Group_28" data-name="Group 28" clip-path="url(#clip-path)">
    <path id="Path_34" data-name="Path 34" d="M57.178,17.006a4.566,4.566,0,0,1-.374,1.543c-.832,2.609-1.673,5.216-2.5,7.826-.229.721-.211.78.446,1.1,1.417.7,2.843,1.371,4.223,2.033.141.5-.239.608-.463.782q-6.179,4.815-12.37,9.615c-.125.1-.254.189-.377.288-1.373,1.1-1.455.9-.979,2.75.368,1.428.717,2.861,1.058,4.3.1.409-.087.626-.486.567q-2.817-.418-5.63-.868c-2.5-.4-5-.8-7.5-1.2-.252-.04-.511-.037-.756-.053a3.267,3.267,0,0,0-.168,1.6c-.009,3.48,0,6.96-.006,10.44,0,.369,0,.738-.022,1.106a.413.413,0,0,1-.377.431q-1.342.035-2.686.012a.412.412,0,0,1-.392-.417c-.026-.42-.028-.842-.028-1.263q0-5.22,0-10.44c0-.316,0-.633-.015-.949-.025-.426-.18-.574-.594-.513-1.3.193-2.606.4-3.908.611q-4.3.691-8.592,1.386c-.26.042-.523.073-.785.1-.74.07-.8-.009-.657-.8.048-.259.11-.515.174-.771.307-1.226.564-2.468.944-3.672a1.652,1.652,0,0,0-.68-2.045c-2.81-2.143-5.6-4.314-8.394-6.477Q2.9,32.178.531,30.326c-.2-.157-.378-.343-.531-.484.042-.406.33-.462.556-.572,1.043-.508,2.09-1.007,3.134-1.512,1.314-.635,1.305-.5.816-2.011Q3.53,22.742,2.56,19.734c-.242-.752-.478-1.507-.7-2.266-.111-.387.087-.587.513-.5q2.473.536,4.939,1.107c1.027.236,2.048.5,3.076.736a7.733,7.733,0,0,0,.872.092l.515-5.508c.32-.162.513.024.709.2l5.385,4.9c.273.248.539.506.827.737.152.122.28.352.532.251s.169-.344.143-.529c-.163-1.148-.33-2.3-.513-3.44-.466-2.914-.941-5.826-1.409-8.74a.92.92,0,0,1,.115-.82c1.616.554,3.254,1.113,4.891,1.677.3.1.6.205.887.336a.7.7,0,0,0,.956-.288c.214-.3.41-.613.613-.922q1.909-2.91,3.82-5.817C28.96.6,29.1.174,29.606,0c.263.374.543.751.8,1.143Q32.233,3.917,34.051,6.7c.231.352.463.705.727,1.032a.73.73,0,0,0,.852.245c.846-.3,1.688-.6,2.534-.9,1.083-.376,2.169-.742,3.389-1.159a36.424,36.424,0,0,1-.645,4.656c-.227,1.511-.471,3.02-.7,4.53-.231,1.495-.458,2.99-.717,4.679a6.589,6.589,0,0,0,1.623-1.266c.517-.45,1.017-.921,1.524-1.382q.7-.639,1.406-1.277c.507-.462,1.007-.932,1.52-1.387.462-.41.938-.8,1.515-1.3a12.169,12.169,0,0,1,.365,2.458c.072.893.136,1.787.236,2.677.068.607.209.689.844.54,2.361-.553,4.72-1.117,7.08-1.673a3.359,3.359,0,0,1,1.578-.172m-16.069,26.6a2.941,2.941,0,0,0-.124-1.419c-.136-.509-.26-1.02-.4-1.528a1,1,0,0,1,.343-1.132c.286-.232.585-.45.876-.677q4.87-3.787,9.737-7.578c.321-.251.73-.424.924-.962-.644-.319-1.3-.634-1.952-.971s-.7-.443-.486-1.118c.486-1.558,1.016-3.1,1.485-4.666a3.807,3.807,0,0,0,.394-1.672c-.416-.261-.816-.048-1.214.044-1.8.415-3.591.843-5.389,1.257-.572.132-.665.069-.754-.456-.062-.364-.1-.732-.156-1.1-.054-.328.031-.707-.3-1.043-.342.294-.622.523-.889.766q-1.991,1.808-3.978,3.62a7.173,7.173,0,0,1-.968.811A1.924,1.924,0,0,1,35.295,24.2a7.71,7.71,0,0,1,.152-1.411c.469-2.966.949-5.929,1.419-8.895.115-.728.218-1.459.3-2.191a.307.307,0,0,0-.4-.343c-.807.236-1.6.518-2.4.776-.661.213-.8.185-1.187-.394-.91-1.357-1.792-2.732-2.7-4.092a3.808,3.808,0,0,0-.927-1.2c-.429.153-.578.51-.778.812-.845,1.274-1.68,2.554-2.519,3.831-.174.264-.344.53-.529.786a.784.784,0,0,1-.971.313c-.4-.141-.779-.335-1.184-.441-.548-.144-1.045-.522-1.65-.4a1.329,1.329,0,0,0-.049.939c.449,2.809.913,5.615,1.358,8.425a28.811,28.811,0,0,1,.467,3.44,1.9,1.9,0,0,1-2.92,1.656A6.462,6.462,0,0,1,19.809,25q-2.227-2.019-4.446-4.046c-.188-.17-.373-.391-.669-.188-.28.792.023,1.682-.431,2.538-1.189-.279-2.354-.6-3.537-.818a19.787,19.787,0,0,0-3.788-.74c.182.594.33,1.091.488,1.585.528,1.656,1.064,3.308,1.586,4.965.185.588.124.7-.419,1a8.261,8.261,0,0,0-2.079,1.195c.51.412.951.781,1.4,1.134,3.206,2.492,6.392,5.008,9.636,7.449a1.71,1.71,0,0,1,.724,2.157,12.513,12.513,0,0,0-.37,1.535c-.128.662.05.822.762.726.156-.021.31-.065.466-.09,2.967-.48,5.935-.946,8.9-1.445a7.325,7.325,0,0,1,2.511-.047c1.87.324,3.748.6,5.622.9,1.606.256,3.212.517,4.942.8"/>
  </g>
</svg>
