<svg id="Group_628" data-name="Group 628" xmlns="http://www.w3.org/2000/svg" xmlns:xlink="http://www.w3.org/1999/xlink" width="88.482" height="27.006" viewBox="0 0 88.482 27.006">
  <defs>
    <clipPath id="clip-path">
      <rect id="Rectangle_140" data-name="Rectangle 140" width="88.482" height="27.006" fill="none"/>
    </clipPath>
  </defs>
  <g id="Group_42" data-name="Group 42" clip-path="url(#clip-path)">
    <path id="Path_61" data-name="Path 61" d="M294.279,28.071a1.691,1.691,0,0,1-.5.032l-5.892,0a1.331,1.331,0,0,1-.2-.009c-.04-.006-.082-.018-.092-.078-.132-.765-.318-1.519-.482-2.278-.1-.469-.219-.936-.316-1.406-.025-.119-.067-.15-.185-.15q-2.584,0-5.169,0-1.862-.005-3.725-.025a.174.174,0,0,0-.2.14c-.346.921-.705,1.838-1.057,2.757-.113.3-.224.593-.322.895a.2.2,0,0,1-.228.161q-3.08-.006-6.161,0c-.347,0-.694,0-1.041,0-.121,0-.159-.019-.1-.149.839-1.794,1.612-3.617,2.423-5.424.167-.372.334-.744.5-1.117.173-.391.342-.783.514-1.174s.357-.806.536-1.209c.3-.679.607-1.357.9-2.039.089-.2.2-.4.284-.6.1-.241.2-.484.3-.721q1.566-3.545,3.145-7.085c.23-.518.443-1.044.691-1.554.148-.305.273-.621.425-.926.12-.241.216-.5.325-.756.208-.483.416-.966.644-1.439a3.34,3.34,0,0,1,.795-1.09,3.391,3.391,0,0,1,1.736-.786,13.622,13.622,0,0,1,2.211-.119c1.315,0,2.63,0,3.945,0a1.1,1.1,0,0,1,.448.021c.04.017.069.025.074.071.051.458.178.9.269,1.353.065.319.148.638.217.958.108.5.217.995.321,1.493.066.313.147.628.218.942.131.58.261,1.16.384,1.742.1.491.223.981.334,1.472.151.667.3,1.336.445,2,.113.508.239,1.014.339,1.525.12.611.255,1.22.393,1.826.2.9.4,1.8.6,2.7.175.752.34,1.505.5,2.259.093.426.151.861.265,1.282.169.625.292,1.261.436,1.891.13.568.24,1.139.366,1.708.113.511.247,1.017.349,1.53a10.388,10.388,0,0,1,.219,1.084.084.084,0,0,0,.1.085ZM283.446,9.011a.551.551,0,0,0-.044.067c-.457,1.193-.909,2.387-1.37,3.578q-.852,2.2-1.715,4.394c-.216.553-.414,1.114-.657,1.656-.041.091.018.157.133.13a1.181,1.181,0,0,1,.279-.028c1.79,0,3.581,0,5.371,0,.158,0,.162-.055.131-.173-.119-.45-.2-.909-.316-1.361-.129-.514-.217-1.037-.329-1.555q-.278-1.292-.563-2.583c-.136-.621-.277-1.242-.411-1.863-.112-.516-.208-1.036-.329-1.549a3.869,3.869,0,0,0-.179-.716" transform="translate(-205.798 -1.466)"/>
    <path id="Path_62" data-name="Path 62" d="M189.621,27.006c-.02-.036,0-.091-.08-.094-.418-.018-.836-.042-1.253-.074-.465-.036-.926-.114-1.388-.177a19.082,19.082,0,0,1-2.084-.449,11.182,11.182,0,0,1-1.608-.522c-.169-.071-.106-.206-.09-.3.073-.417.155-.833.234-1.25.12-.634.225-1.271.331-1.906s.235-1.289.3-1.941c.014-.14.061-.276.066-.419,0-.124.1-.106.171-.073.149.066.291.145.44.213q.768.348,1.567.619c.507.171,1.019.328,1.527.5s1.036.151,1.542.285a5.857,5.857,0,0,0,.9.068,14.136,14.136,0,0,0,2.024.038,5.136,5.136,0,0,0,2.884-.882,1.985,1.985,0,0,0,.915-1.361,1.783,1.783,0,0,0-.241-1.244,3.343,3.343,0,0,0-.836-.832,8,8,0,0,0-.891-.576c-.335-.19-.676-.371-1.028-.533-.276-.127-.546-.268-.821-.4-.356-.171-.717-.333-1.067-.515-.321-.167-.635-.351-.945-.539s-.627-.38-.923-.593-.543-.434-.814-.652a9.573,9.573,0,0,1-.718-.737,5.35,5.35,0,0,1-.819-1.066,5.541,5.541,0,0,1-.82-2.382,6.559,6.559,0,0,1,.081-1.762,9.607,9.607,0,0,1,.571-1.855,7.32,7.32,0,0,1,.611-1.054,6.758,6.758,0,0,1,1.162-1.364c.2-.189.427-.348.641-.52.343-.276.713-.511,1.075-.758a7.038,7.038,0,0,1,1.335-.669,15.949,15.949,0,0,1,2.8-.85c.472-.1.946-.176,1.426-.233.443-.052.886-.064,1.328-.1.3-.027.612-.037.912-.039a10.1,10.1,0,0,1,1.249.043c.219.026.443.023.665.036.256.014.505.051.757.09.208.032.421.04.63.08.25.048.507.074.752.141.492.136,1,.2,1.485.365.3.1.6.195.9.277.112.03.143.077.122.184-.043.227-.083.456-.122.684-.094.547-.174,1.1-.285,1.64-.07.346-.126.695-.18,1.041-.059.376-.129.752-.178,1.13-.037.285-.094.578-.16.863-.043.188-.075.2-.24.121A12.5,12.5,0,0,0,201.608,6c-.53-.171-1.077-.238-1.614-.364-.316-.074-.644-.062-.964-.107a10.8,10.8,0,0,0-1.734-.058,8.009,8.009,0,0,0-1.054.115,7.079,7.079,0,0,0-1.016.234,2.555,2.555,0,0,0-.6.3,2.269,2.269,0,0,0-1,1.105,1.328,1.328,0,0,0-.076.738,2.012,2.012,0,0,0,.738,1.108,8.74,8.74,0,0,0,1.423.961c.378.219.765.42,1.15.623.331.174.68.325,1.026.473a11.8,11.8,0,0,1,1.1.571,13.856,13.856,0,0,1,1.186.727c.21.146.42.3.62.465.263.218.53.433.79.655a5.442,5.442,0,0,1,1.334,1.762,5.875,5.875,0,0,1,.532,1.575,5.7,5.7,0,0,1,.1,1.453c-.028.349-.066.7-.118,1.049a7.476,7.476,0,0,1-1.477,3.406,8.541,8.541,0,0,1-1.5,1.549,10.158,10.158,0,0,1-2.282,1.324c-.3.132-.6.261-.9.376a14.149,14.149,0,0,1-2.418.657,10.462,10.462,0,0,1-2.027.188c-.072,0-.144.018-.216.02s-.122.009-.1.1Z" transform="translate(-140.291 0)"/>
    <path id="Path_63" data-name="Path 63" d="M225.078,115.41c-.011-.024,0-.038.024-.033s.013.02.01.033Z" transform="translate(-172.457 -88.404)"/>
    <path id="Path_64" data-name="Path 64" d="M225.668,115.415l.011-.032.023.032Z" transform="translate(-172.913 -88.409)"/>
    <path id="Path_65" data-name="Path 65" d="M41.97,15.942c.139.512.239,1.032.336,1.553.075.4.164.8.252,1.192.072.321.112.65.21.965a.113.113,0,0,0,.063.087c.082-.206.156-.414.246-.616.142-.316.245-.646.385-.964.112-.255.207-.522.3-.787.1-.281.213-.556.322-.832.165-.416.333-.831.5-1.248q1.37-3.484,2.74-6.97.446-1.136.891-2.273.513-1.312,1.024-2.625a12.051,12.051,0,0,0,.523-1.4.134.134,0,0,1,.149-.105c.129,0,.257,0,.386,0q3.467,0,6.933,0c.152,0,.17.037.111.167-.58,1.258-1.1,2.542-1.664,3.807-.2.446-.4.89-.594,1.337-.3.7-.589,1.395-.889,2.09q-.543,1.257-1.091,2.512c-.24.554-.472,1.113-.7,1.671-.208.5-.437.994-.653,1.493-.337.778-.676,1.555-1.012,2.333q-.546,1.266-1.089,2.533-.366.85-.732,1.7Q48.247,23.1,47.58,24.64q-.444,1.025-.886,2.05c-.174.4-.353.806-.513,1.215a.229.229,0,0,1-.255.173q-3.449-.006-6.9,0a2.226,2.226,0,0,1-.24.019c-.267-.03-.315-.063-.366-.338-.068-.367-.2-.713-.293-1.073-.114-.457-.246-.91-.373-1.364-.149-.534-.3-1.066-.453-1.6-.3-1.059-.588-2.118-.884-3.177q-.607-2.167-1.217-4.333c-.243-.86-.492-1.719-.734-2.579-.23-.818-.452-1.639-.682-2.457-.189-.675-.39-1.346-.577-2.021Q32.7,7.319,32.2,5.482a.479.479,0,0,1,0-.116,1.948,1.948,0,0,1,.6.316A22.93,22.93,0,0,1,38.543,10.4a19.343,19.343,0,0,1,3.221,5.084,1.268,1.268,0,0,0,.207.46" transform="translate(-24.67 -1.47)"/>
    <path id="Path_66" data-name="Path 66" d="M136.845,28.021H133.5c-.242,0-.249-.013-.2-.246.109-.532.207-1.066.289-1.6.068-.446.17-.887.234-1.334.081-.575.221-1.139.272-1.719.022-.251.091-.5.138-.748.055-.293.1-.587.159-.879.082-.4.165-.805.216-1.212.043-.346.125-.686.159-1.034.021-.209.1-.412.116-.624.028-.325.115-.641.157-.965.035-.271.1-.542.145-.813.067-.363.111-.731.185-1.092.065-.317.122-.637.169-.955.051-.352.122-.7.176-1.053.061-.4.123-.793.208-1.186.066-.308.1-.623.15-.934.055-.327.12-.652.177-.979s.1-.629.158-.943c.05-.288.107-.575.157-.863.116-.665.236-1.329.342-1.995.124-.781.261-1.559.4-2.338.09-.513.174-1.027.268-1.539.06-.33.1-.664.141-1,.011-.089.032-.12.126-.132a2.8,2.8,0,0,1,.365-.024l6.194.007c.14,0,.28.007.419.006.075,0,.1.032.089.1-.093.559-.183,1.119-.279,1.677-.1.6-.226,1.188-.312,1.786-.038.266-.128.524-.142.789-.014.28-.108.539-.143.811-.067.532-.178,1.057-.267,1.585-.123.729-.261,1.457-.367,2.189-.051.352-.1.706-.162,1.054-.064.393-.147.788-.214,1.183a6.209,6.209,0,0,0-.181,1.249c0,.071-.054.137-.068.219-.033.19-.025.394-.069.561a5.1,5.1,0,0,0-.137.576c-.079.565-.2,1.122-.284,1.686-.05.348-.121.693-.173,1.041-.11.726-.259,1.445-.367,2.172a9.2,9.2,0,0,1-.222,1.136,7.775,7.775,0,0,0-.13.856q-.156.958-.32,1.916c-.1.561-.2,1.121-.292,1.682-.082.477-.159.955-.243,1.431-.025.139-.061.277-.1.413-.026.1-.111.086-.186.086h-3.408Z" transform="translate(-102.123 -1.389)"/>
    <path id="Path_67" data-name="Path 67" d="M17.3,15.864a1.268,1.268,0,0,1-.207-.46,19.343,19.343,0,0,0-3.221-5.084,22.538,22.538,0,0,0-2.488-2.433A22.749,22.749,0,0,0,8.13,5.6a1.948,1.948,0,0,0-.6-.316,2.065,2.065,0,0,0-.5-.3,29.355,29.355,0,0,0-5.849-2.3C.852,2.593.516,2.509.179,2.432.047,2.4-.019,2.352,0,2.208c.072-.445-.017-.387.419-.387q5.522-.006,11.043,0a4.917,4.917,0,0,1,1.771.33,2.536,2.536,0,0,1,1.569,1.754c.177.609.273,1.238.405,1.858.147.691.3,1.38.431,2.074.117.635.243,1.268.387,1.9.149.649.277,1.3.419,1.952q.329,1.513.637,3.032a7.185,7.185,0,0,0,.207.84,1.24,1.24,0,0,1,.007.307" transform="translate(0 -1.393)"/>
  </g>
</svg>
