<svg id="Group_330" data-name="Group 330" xmlns="http://www.w3.org/2000/svg" xmlns:xlink="http://www.w3.org/1999/xlink" width="76.466" height="64.7" viewBox="0 0 76.466 64.7">
  <defs>
    <clipPath id="clip-path">
      <rect id="Rectangle_139" data-name="Rectangle 139" width="76.466" height="64.7" fill="none"/>
    </clipPath>
  </defs>
  <g id="Group_40" data-name="Group 40" clip-path="url(#clip-path)">
    <path id="Path_48" data-name="Path 48" d="M257.737,85.615l-.007-14.456,3.774-.894v1.893a5.421,5.421,0,0,1,3.243-3.07,2.186,2.186,0,0,1,1.05-.07v3.688a5.274,5.274,0,0,0-1.976.412c-1.393.551-2.1,1.751-2.1,3.585l0,7.981Z" transform="translate(-214.554 -57.43)" fill="#1a1818"/>
    <path id="Path_49" data-name="Path 49" d="M126.345,104.316s-.611-.92-.611-4.172v-7.2l-1.942.461V90.443l1.945-.46V86.753l4.013-.947v3.231l2.834-.672v2.96L129.75,92s0,5.9,0,7.328c0,3.332.884,3.971.884,3.971Z" transform="translate(-103.054 -71.431)" fill="#1a1818"/>
    <path id="Path_50" data-name="Path 50" d="M178.776,98.121a12.132,12.132,0,0,1,1.152-5.883,6.7,6.7,0,0,1,4.7-3.328c4.4-1,5.988,1.6,5.926,5.1-.021,1.249-.016,1.859-.016,1.859l-7.754,1.821v.126c0,2.442.513,3.6,2.059,3.271a2.112,2.112,0,0,0,1.812-2.152c.019-.17.025-.593.025-.593l3.634-.871s.008.3,0,.63c-.033,1.388-.436,4.831-5.484,6.023-4.782,1.136-6.058-1.786-6.058-6m6.013-6.52c-1.285.292-1.958,1.551-1.987,3.64l3.9-.929c.007-.094.007-.3.007-.63-.007-1.575-.494-2.406-1.921-2.081" transform="translate(-148.827 -73.836)" fill="#1a1818"/>
    <path id="Path_51" data-name="Path 51" d="M386.881,48.388c-.15-4.4.99-7.9,5.9-9.008,3.134-.712,4.322.1,4.924.888a5.037,5.037,0,0,1,.8,3.183l0,.263-3.846.913s0-.52,0-.536c0-1.683-.464-2.323-1.686-2.016-1.453.365-2.04,1.743-2.04,4.486,0,.974.005,1.148.005,1.279,0,2.787.382,4.063,2.055,3.712,1.453-.3,1.652-1.576,1.676-2.694,0-.176.011-.738.011-.738l3.837-.905s0,.285,0,.6c-.011,3.654-1.936,5.958-5.547,6.8-4.97,1.167-5.945-1.709-6.1-6.221" transform="translate(-322.059 -32.555)" fill="#1a1818"/>
    <path id="Path_52" data-name="Path 52" d="M307.641,69.844c0-3.347,1.965-4.407,4.917-5.628,2.654-1.1,2.71-1.643,2.722-2.6.015-.8-.357-1.49-1.679-1.153a2,2,0,0,0-1.6,1.892,6.7,6.7,0,0,0-.024.742l-3.723.879a7.407,7.407,0,0,1,.257-2.2c.6-2,2.363-3.349,5.409-4.054,3.959-.912,5.281.825,5.287,3.529v6.4c0,3.1.574,3.549.574,3.549l-3.655.866a8.043,8.043,0,0,1-.492-1.314,5,5,0,0,1-3.558,2.665c-2.9.683-4.435-1.111-4.435-3.576m7.615-4.571a13.7,13.7,0,0,1-1.946,1.137,2.592,2.592,0,0,0-1.77,2.461,1.261,1.261,0,0,0,1.71,1.35,2.817,2.817,0,0,0,2.006-2.934Z" transform="translate(-256.104 -47.849)" fill="#1a1818"/>
    <path id="Path_53" data-name="Path 53" d="M2.316,232.365a2.32,2.32,0,0,1-1.942-3.583L.4,228.75l.044-.011L5.9,227.452V231.6l-.086.02c-1.237.3-2.715.636-3.021.7a2.1,2.1,0,0,1-.476.052" transform="translate(0 -189.348)" fill="#1a1818"/>
    <path id="Path_54" data-name="Path 54" d="M2.316,264.019A2.316,2.316,0,0,1,0,261.705a2.27,2.27,0,0,1,.374-1.259L.4,260.4l.044-.009L5.9,259.107v4.144l-.086.022c-1.237.3-2.715.64-3.021.7a2.455,2.455,0,0,1-.476.045" transform="translate(0 -215.7)" fill="#1a1818"/>
    <path id="Path_55" data-name="Path 55" d="M2.316,295.715A2.319,2.319,0,0,1,0,293.4a2.27,2.27,0,0,1,.374-1.259L.4,292.1l5.5-1.3v4.144l-.086.021c-1.306.315-2.758.643-3.021.7a2.568,2.568,0,0,1-.476.046" transform="translate(0 -242.085)" fill="#1a1818"/>
    <path id="Path_56" data-name="Path 56" d="M9.98,106.282V83.1l4.228-1v23.185Z" transform="translate(-8.307 -68.343)" fill="#1a1818"/>
    <path id="Path_57" data-name="Path 57" d="M46.922,201.73a2.608,2.608,0,0,0-5.217,0l0,21.673a7.073,7.073,0,0,0,7.059,7.062c1.974,0,7.381-.009,7.381-.009l0-9.041c0-4.94,0-9.968,0-10.082a3.411,3.411,0,0,0-1.517-2.842l-6.581-4.469s0,9.7,0,10.148a.56.56,0,1,1-1.12,0c0-.109-.013-11.1-.013-12.439" transform="translate(-34.718 -165.764)" fill="#1a1818"/>
    <path id="Path_58" data-name="Path 58" d="M56.261,117.393A5.7,5.7,0,0,0,52.5,120.3v-1.629l-3.8.9,0,10.408a3.893,3.893,0,0,1,4.006.7v-6.72c0-1.609.8-2.9,1.946-3.147.862-.189,1.58.119,1.58,1.652l0,9.8,4.008-.941V120.958c0-2.515-.965-4.27-3.978-3.565" transform="translate(-40.535 -97.596)" fill="#1a1818"/>
    <path id="Path_59" data-name="Path 59" d="M429.3,4.957a2.478,2.478,0,1,1,2.476-2.477A2.481,2.481,0,0,1,429.3,4.957m0-4.645a2.168,2.168,0,1,0,2.166,2.169A2.172,2.172,0,0,0,429.3.311" transform="translate(-355.318)" fill="#1a1818"/>
    <path id="Path_60" data-name="Path 60" d="M436.206,5.982h1.07a.7.7,0,0,1,.769.777c0,.392-.175.695-.505.746v.005c.3.03.457.2.473.622.005.192.008.43.017.615a.308.308,0,0,0,.145.26h-.545a.461.461,0,0,1-.082-.268c-.019-.182-.015-.351-.021-.571-.008-.33-.109-.475-.442-.475h-.394V9.007h-.485Zm.87,1.348a.445.445,0,0,0,.483-.493c0-.322-.137-.489-.456-.489h-.411V7.33Z" transform="translate(-363.131 -4.98)" fill="#1a1818"/>
  </g>
</svg>
