<svg id="Group_426" data-name="Group 426" xmlns="http://www.w3.org/2000/svg" xmlns:xlink="http://www.w3.org/1999/xlink" width="207.669" height="162.532" viewBox="0 0 207.669 162.532">
  <defs>
    <clipPath id="clip-path">
      <rect id="Rectangle_435" data-name="Rectangle 435" width="207.669" height="162.532" fill="none"/>
    </clipPath>
  </defs>
  <g id="Group_425" data-name="Group 425" transform="translate(0 0)" clip-path="url(#clip-path)">
    <path id="Path_280" data-name="Path 280" d="M22.157,47.14a29.223,29.223,0,0,1-.091-3.657C8.792,47.017.957,55.128.005,66.323c-.031,2.3.086,5.367.2,7.664C-.854,62.53,7.922,51.253,22.157,47.14" transform="translate(0 30.937)" fill="#fff"/>
    <path id="Path_281" data-name="Path 281" d="M22.192,42.013a37.7,37.7,0,0,1,.967-3.767C12.4,39.5,4.862,45.255,2.5,52.831l-.038.122c-.6,2.056-1.265,4.838-1.761,6.923,1.7-8.741,9.7-15.893,21.486-17.863" transform="translate(0.502 27.211)" fill="#fff"/>
    <path id="Path_282" data-name="Path 282" d="M23.009,36.733q.87-1.895,1.934-3.781c-8.689-.116-15.073,3.2-18.029,8.489L5.689,43.7,3.782,47.582c2.81-6.2,9.692-10.445,19.227-10.849" transform="translate(2.691 23.443)" fill="#fff"/>
    <path id="Path_283" data-name="Path 283" d="M24.855,31.577q1.317-1.864,2.812-3.7c-6.94-1.128-12.16.493-15.006,4.032L9.6,35.868,8.58,37.287c2.954-4.2,8.65-6.447,16.275-5.71" transform="translate(6.105 19.58)" fill="#fff"/>
    <path id="Path_284" data-name="Path 284" d="M27.836,26.743q1.723-1.787,3.6-3.529C26,21.3,21.9,21.715,19.51,23.95c-1.5,1.391-3.4,3.336-4.861,4.768,2.61-2.716,7.164-3.579,13.187-1.975" transform="translate(10.423 15.65)" fill="#fff"/>
    <path id="Path_285" data-name="Path 285" d="M31.9,22.3q2.079-1.661,4.3-3.26c-4.1-2.552-7.13-3.034-8.876-1.765-1.7,1.225-3.894,2.954-5.562,4.221,2.03-1.633,5.5-1.494,10.142.8" transform="translate(15.481 11.81)" fill="#fff"/>
    <path id="Path_286" data-name="Path 286" d="M36.91,18.309q2.393-1.492,4.9-2.9c-2.872-3.1-4.84-4.265-5.833-3.705L29.8,15.359c1.316-.832,3.729.067,7.111,2.951" transform="translate(21.202 8.232)" fill="#fff"/>
    <path id="Path_287" data-name="Path 287" d="M48.137,12.382c-1.676-3.6-2.564-5.3-2.706-5.237l-1.169.5-5.579,2.538c.507-.253,1.854,1.236,4.032,4.64q2.66-1.273,5.422-2.441" transform="translate(27.523 5.082)" fill="#fff"/>
    <path id="Path_288" data-name="Path 288" d="M55.037,10.009c-.44-4.1-.169-6.2.649-6.439l-3.9,1.21L48.43,5.911c-.389.382-.19,1.889.787,5.977q1.343-.47,2.7-.909,1.563-.508,3.118-.97" transform="translate(34.325 2.54)" fill="#fff"/>
    <path id="Path_289" data-name="Path 289" d="M66.771,1.188,60.324,2.466l-.722.161c-1.412.317-2.393,2.61-2.694,6.973q2.847-.642,5.645-1.133C63.4,3.9,64.911,1.5,66.771,1.188" transform="translate(40.49 0.845)" fill="#fff"/>
    <path id="Path_290" data-name="Path 290" d="M70.037,7.779C72.269,2.742,75.152.2,78.137.067c-2.11.106-4.915.377-7.021.539-2.5.252-4.787,2.75-6.42,7.584q2.706-.28,5.34-.411" transform="translate(46.031 0.047)" fill="#fff"/>
    <path id="Path_291" data-name="Path 291" d="M76.933,8.025C80.737,2.515,85.2.017,89.408.4,87.368.222,84.638.119,82.594,0c-3.687-.12-7.462,2.423-10.582,7.738q2.508.069,4.921.282" transform="translate(51.236 0)" fill="#fff"/>
    <path id="Path_292" data-name="Path 292" d="M83.082,9.222c5.665-5.983,12.03-8.164,17.515-6.766-1.949-.488-4.578-1-6.543-1.419-7.724-1.253-13.076,4.7-15.361,7.236q2.254.406,4.388.948" transform="translate(55.99 0.616)" fill="#fff"/>
    <path id="Path_293" data-name="Path 293" d="M84.584,9.57q1.943.727,3.745,1.585c7.97-6.464,16.723-7.845,23.427-4.623l-2.064-.948-4.205-1.715c-6.232-2.367-13.94-.582-20.9,5.7" transform="translate(60.181 2.038)" fill="#fff"/>
    <path id="Path_294" data-name="Path 294" d="M89.528,11.595a34.177,34.177,0,0,1,2.988,2.192c10.806-6.834,22.523-6.62,29.944-.459-1.16-.953-2.786-2.124-3.983-3.033l-1.78-1.21c-7.228-4.768-17.622-4.19-27.17,2.509" transform="translate(63.698 4.241)" fill="#fff"/>
    <path id="Path_295" data-name="Path 295" d="M93.369,14.359a27.143,27.143,0,0,1,2.121,2.773c14.81-6.627,28.317-4.226,36.131,6.422-1.314-1.872-3.19-4.28-4.624-6.062-3.815-4.108-14.729-12.633-33.627-3.132" transform="translate(66.431 7.14)" fill="#fff"/>
    <path id="Path_296" data-name="Path 296" d="M95.948,17.858c.053.127.106.253.157.38a25.561,25.561,0,0,1,.982,2.942c15.566-5.437,34.911-1.027,40.345,15.766-.582-2.008-1.508-4.636-2.21-6.6l-.351-.849c-5.49-13.028-22.828-18.241-38.924-11.635" transform="translate(68.266 10.668)" fill="#fff"/>
    <path id="Path_297" data-name="Path 297" d="M97.106,22.131a29.017,29.017,0,0,1,.048,3.663c16.694-3.89,34.558,3.7,39.905,16.956a20.349,20.349,0,0,1,1.5,8.58c.055-2.3-.022-5.366-.111-7.664a20.756,20.756,0,0,0-1.456-6.113c-5.345-13.256-23.2-20.16-39.885-15.421" transform="translate(69.09 14.682)" fill="#fff"/>
    <path id="Path_298" data-name="Path 298" d="M97.152,26.895a38.045,38.045,0,0,1-1.006,3.769c16.3-1.812,33.85,7.464,39.195,20.718a18.872,18.872,0,0,1,.734,12.961l.231-.734c.555-1.859,1.157-4.375,1.624-6.257a19.519,19.519,0,0,0-1.16-11.318c-5.345-13.256-23.081-21.823-39.618-19.138" transform="translate(68.407 18.785)" fill="#fff"/>
    <path id="Path_299" data-name="Path 299" d="M134.06,54.923c-5.345-13.256-22.5-23.523-38.317-22.934q-.888,1.892-1.97,3.779c15.362.286,32.147,11.263,37.492,24.517,2.346,5.819,2.1,11.111-.217,15.191l1.535-2.8,1.631-3.289c1.908-4.118,2-9.126-.154-14.462" transform="translate(66.719 22.742)" fill="#fff"/>
    <path id="Path_300" data-name="Path 300" d="M90.141,40.942c13.923,2.355,29.54,15.008,34.884,28.264,2.706,6.709,2.263,12.287-.642,15.854l3.459-4.45.649-.893c2.744-3.842,3.149-9.367.572-15.758-5.347-13.256-21.5-25.215-36.077-26.713q-1.335,1.861-2.845,3.7" transform="translate(64.135 26.499)" fill="#fff"/>
    <path id="Path_301" data-name="Path 301" d="M116.837,77.734c2.956,7.329,2.62,12.814-.3,15.523,1.5-1.386,3.426-3.324,4.893-4.751,9.447-10.9-10.555-39.364-32.428-46.149q-1.735,1.782-3.628,3.519c12.033,4.34,26.119,18.6,31.464,31.858" transform="translate(60.742 30.136)" fill="#fff"/>
    <path id="Path_302" data-name="Path 302" d="M106.917,85.635c3.12,7.741,3.206,12.915.794,14.649,1.706-1.219,3.914-2.94,5.59-4.2,2.685-2.141,2.812-7.466-.25-15.056C107.706,67.77,94.664,52.618,83.918,47.181q-2.09,1.656-4.32,3.248c9.744,6.189,21.974,21.95,27.319,35.205" transform="translate(56.633 33.569)" fill="#fff"/>
    <path id="Path_303" data-name="Path 303" d="M77.868,51.586q-2.4,1.484-4.926,2.88c7.1,7.851,17.2,24.959,22.54,38.214,3.219,7.988,3.984,12.754,2.528,13.564l6.206-3.63c1.9-1.188,1.443-6.127-1.742-14.022-5.345-13.256-16.36-29.823-24.606-37.006" transform="translate(51.898 36.703)" fill="#fff"/>
    <path id="Path_304" data-name="Path 304" d="M70.967,55.44Q68.3,56.7,65.526,57.86C69.692,67.131,77.4,85.391,82.745,98.647c3.257,8.075,4.885,12.429,4.719,12.506l1.811-.768,4.958-2.242c.731-.361-.52-4.881-3.765-12.93-5.345-13.256-14.075-31.06-19.5-39.772" transform="translate(46.621 39.445)" fill="#fff"/>
    <path id="Path_305" data-name="Path 305" d="M63.328,58.611q-1.073.37-2.16.722-1.836.6-3.663,1.13c.986,10.4,6.119,29.568,11.464,42.823,3.23,8.011,5.8,12.028,7.108,11.659l4.577-1.41,2.687-.9c-.683.224-2.858-3.921-6.108-11.979-5.345-13.254-11.57-32.078-13.9-42.046" transform="translate(40.915 41.701)" fill="#fff"/>
    <path id="Path_306" data-name="Path 306" d="M55.48,60.9q-2.842.629-5.634,1.106c-2.177,11.13.39,30.9,5.735,44.151,3.142,7.794,6.545,11.6,9.259,11.156l7.115-1.393.051-.012c-2.153.478-5.235-3.4-8.429-11.318-5.343-13.255-8.97-32.814-8.1-43.689" transform="translate(34.914 43.328)" fill="#fff"/>
    <path id="Path_307" data-name="Path 307" d="M48.84,62.148q-2.7.267-5.326.383c-5.188,11.458-5.059,31.491.286,44.747,2.988,7.409,6.973,11.133,10.811,10.978,2.107-.1,4.909-.353,7.01-.5-3.416.327-7.2-3.42-10.262-11.017-5.345-13.255-6.473-33.217-2.519-44.586" transform="translate(28.25 44.217)" fill="#fff"/>
    <path id="Path_308" data-name="Path 308" d="M42.995,62.529q-2.5-.085-4.9-.31c-7.981,11.4-10.115,31.382-4.77,44.637,2.754,6.829,6.955,10.541,11.474,10.976,2.035.188,4.758.306,6.8.431-4.3-.163-8.455-3.875-11.316-10.969C34.935,94.041,36.15,74,42.995,62.529" transform="translate(21.614 44.268)" fill="#fff"/>
    <path id="Path_309" data-name="Path 309" d="M30.263,106.357C24.918,93.1,28.271,73.288,37.754,62.1q-2.244-.418-4.366-.974c-10.493,10.964-14.666,30.6-9.321,43.85,2.418,6,6.37,9.663,10.947,10.863l.354.092c1.84.471,4.327.964,6.18,1.371-4.619-.887-8.72-4.582-11.286-10.943" transform="translate(15.468 43.489)" fill="#fff"/>
    <path id="Path_310" data-name="Path 310" d="M21.419,103.829c-5.345-13.256-.111-32.547,11.693-43.092Q31.181,60,29.394,59.127C16.729,69.3,10.8,88.291,16.142,101.545a18.607,18.607,0,0,0,8.927,10.086l2.656,1.234,3.615,1.491c-4.231-1.643-7.77-5.188-9.922-10.526" transform="translate(10.087 42.068)" fill="#fff"/>
    <path id="Path_311" data-name="Path 311" d="M13.916,99.781c-5.345-13.256,1.465-31.743,15.213-41.3a34.117,34.117,0,0,1-2.957-2.215C11.739,65.308,4.374,83.38,9.719,96.636a20.05,20.05,0,0,0,5.605,7.878c1.313,1.09,3.147,2.437,4.5,3.469l1.244.852a19.465,19.465,0,0,1-7.157-9.054" transform="translate(5.676 40.035)" fill="#fff"/>
    <path id="Path_312" data-name="Path 312" d="M7.449,79.487q.5.7,1.042,1.344c-.327-.418-.681-.875-1.042-1.344" transform="translate(5.3 56.554)" fill="#fff"/>
    <path id="Path_313" data-name="Path 313" d="M25.9,55.385a27.214,27.214,0,0,1-2.085-2.793C8.078,60.172-.343,77.063,5,90.318a21.147,21.147,0,0,0,1.819,3.526c.994,1.451,2.312,3.219,3.512,4.778A20.89,20.89,0,0,1,7.96,94.284c-5.345-13.256,2.684-30.67,17.936-38.9" transform="translate(2.415 37.418)" fill="#fff"/>
    <path id="Path_314" data-name="Path 314" d="M23.512,51.475l-.031-.077a25.624,25.624,0,0,1-1.068-3.264C7.01,53.559-1.9,67.381,1.321,79.975c.63,2.223,1.621,5.145,2.4,7.32l.068.171c-.009-.021-.017-.041-.024-.062C-1.582,74.149,7.258,58.062,23.512,51.475" transform="translate(0.474 34.247)" fill="#fff"/>
  </g>
</svg>
