<svg xmlns="http://www.w3.org/2000/svg" xmlns:xlink="http://www.w3.org/1999/xlink" width="76.274" height="76.274" viewBox="0 0 76.274 76.274">
  <defs>
    <filter id="bg" x="0" y="0" width="76.274" height="76.274" filterUnits="userSpaceOnUse">
      <feOffset dy="2" input="SourceAlpha"/>
      <feGaussianBlur stdDeviation="3" result="blur"/>
      <feFlood flood-color="#474747" flood-opacity="0.322"/>
      <feComposite operator="in" in2="blur"/>
      <feComposite in="SourceGraphic"/>
    </filter>
  </defs>
  <g id="Over_slider" data-name="Over slider" transform="translate(-912.726 -1008.668)">
    <g transform="matrix(1, 0, 0, 1, 912.73, 1008.67)" filter="url(#bg)">
      <path id="bg-2" data-name="bg" d="M29.137,0A29.137,29.137,0,1,1,0,29.137,29.137,29.137,0,0,1,29.137,0Z" transform="translate(9 7)" fill="#fff"/>
    </g>
    <path id="ios-arrow-down" d="M95.269,165.754l5.5-5.5a1.034,1.034,0,0,1,1.467,0,1.047,1.047,0,0,1,0,1.471L96,167.957a1.037,1.037,0,0,1-1.432.03L88.3,161.731a1.039,1.039,0,0,1,1.467-1.471Z" transform="translate(854.874 884.565)" fill="#32353c"/>
  </g>
</svg>
