<svg xmlns="http://www.w3.org/2000/svg" xmlns:xlink="http://www.w3.org/1999/xlink" width="83.475" height="83.475" viewBox="0 0 83.475 83.475">
  <defs>
    <clipPath id="clip-path">
      <rect id="Rectangle_438" data-name="Rectangle 438" width="83.475" height="83.475" fill="none"/>
    </clipPath>
  </defs>
  <g id="Group_452" data-name="Group 452" transform="translate(0 0)">
    <g id="Group_432" data-name="Group 432" transform="translate(0 0)" clip-path="url(#clip-path)">
      <path id="Path_365" data-name="Path 365" d="M1585.7,1072.194a13,13,0,0,1-13,13h-57.583a12.893,12.893,0,0,1-12.893-12.894v-58.152a12.43,12.43,0,0,1,12.431-12.43h58.615a12.428,12.428,0,0,1,12.429,12.428Z" transform="translate(-1502.22 -1001.717)" fill="#fff" fill-rule="evenodd"/>
      <path id="Path_366" data-name="Path 366" d="M1544.572,1228.917v21.213l-3.787.85v-21.213Zm10.022,2.735c-2.337.525-3.771,3.155-3.771,3.155v-1.978l-3.673.8v12.656a4.016,4.016,0,0,1,3.659.394V1240.5c.027-2.96.876-4.688,2.648-5.087,1.557-.35,2.141.812,2.116,2.6v9.664l3.606-.814.024-9.635c.032-4.714-1.872-6.193-4.61-5.578m5.458-.918,2.068-.464V1227.3l3.655-.813v2.962l2.6-.585-.037,3.208-2.6.585-.019,8.034c.018.98.188,1.588,1.289,1.34a7.954,7.954,0,0,0,1.166-.354l.009,3.012a9.344,9.344,0,0,1-2.215.777c-2.09.484-3.895-.876-3.895-3.655l.013-8.334-2.068.464Zm12.73,6.074a5.427,5.427,0,0,0,.046.942c.273,1.628,1.074,2.892,2.72,2.523a2.917,2.917,0,0,0,2.3-2.451l3.83-.859a7.354,7.354,0,0,1-5.908,6.484c-3.749.841-6.017-1.323-6.638-5.023-.682-4.055.375-10.1,5.932-11.343,4.1-.919,6.02,1.507,6.547,4.644a11.783,11.783,0,0,1,.125,3.073Zm5.32-3.988a3.314,3.314,0,0,0-.061-.693c-.224-1.332-.957-2.366-2.576-2-1.673.375-2.5,1.789-2.651,3.88Zm12.68-4.661c-2.546.6-3.774,2.376-3.787,5.855l-.033,6.613-3.652.819v-15.937l3.526-.789a28.431,28.431,0,0,1,.122,2.864,4.393,4.393,0,0,1,3.825-3.631Zm12.973,8.58-.02,0-3.666.828a7.122,7.122,0,0,1-.615-1.7,4.775,4.775,0,0,1-3.81,2.947,3.687,3.687,0,0,1-4.637-3.051c-.8-4.249,2.245-6.312,5.365-7.107,1.123-.285,2.067-.455,3.132-.724l-.054-.955c-.025-1.163-.293-2.58-2.252-2.14a2.323,2.323,0,0,0-1.992,2.3l-3.733.838c.047-2.564,1.166-5.039,5.49-6.009,3.383-.76,6.2.243,6.171,4.4v7.559a16.743,16.743,0,0,0,.235,1.89,2.4,2.4,0,0,0,.386.914m-4.307-6.217a20.3,20.3,0,0,0-2.388.691c-1.974.813-2.64,1.731-2.395,3.029a1.46,1.46,0,0,0,1.988,1.185c2.524-.567,2.744-2.954,2.786-4.655Zm17.48-2.029c-.2,3.061-1.632,5.873-5.74,6.8-3.518.79-5.8-1.066-6.493-4.725-.838-4.427.428-10.463,5.583-11.621,4.511-1.014,6.3,2.245,6.483,4.235l-3.544.8c-.25-1.174-.828-2.306-2.466-1.938-2.578.58-2.794,5.058-2.331,7.507.4,2.124,1.359,2.894,2.675,2.6,1.208-.271,1.9-1.2,2.181-2.827Zm-59.974,27.092-5.169-3.519s0,8.255,0,8.634a.477.477,0,1,1-.954,0c0-.092-.011-9.441-.011-10.581a2.218,2.218,0,1,0-4.437,0l0,18.436a6.014,6.014,0,0,0,6,6.007h.4a5.89,5.89,0,0,0,5.886-5.911s0-9.631,0-9.729a4.367,4.367,0,0,0-1.719-3.337m-15-2.749a1.7,1.7,0,1,0,.8,3.314l2.583-.619v-3.506Zm0,4.517a1.7,1.7,0,1,0,.8,3.314l2.583-.62v-3.505Zm-1.259,6.571a1.7,1.7,0,0,0,2.055,1.26l2.583-.619v-3.506l-3.379.811a1.7,1.7,0,0,0-1.259,2.055" transform="translate(-1536.695 -1196.427)"/>
    </g>
  </g>
</svg>
