<svg xmlns="http://www.w3.org/2000/svg" width="66.082" height="61.689" viewBox="0 0 66.082 61.689">
  <g id="Group_456" data-name="Group 456" transform="translate(0 0)">
    <path id="Path_330" data-name="Path 330" d="M424.511,4307.366c.588,1.188,1.161,2.3,1.671,3.438.07.157-.117.522-.287.681a16.837,16.837,0,0,1-7.023,3.943,23.138,23.138,0,0,1-13.069.039,16.109,16.109,0,0,1-10.7-9.341,27,27,0,0,1-.214-21.77c2.642-6.336,7.7-9.7,14.463-10.5a22.591,22.591,0,0,1,12.108,1.72,15.923,15.923,0,0,1,4.517,3.065.707.707,0,0,1,.207.593c-.522,1.135-1.093,2.248-1.679,3.429-.5-.392-.956-.761-1.423-1.117a17.1,17.1,0,0,0-15.666-2.982c-4.276,1.191-6.891,4.226-8.34,8.317a25.378,25.378,0,0,0-1.165,10.165,20.432,20.432,0,0,0,1.784,7.639,12.364,12.364,0,0,0,10.47,7.363,17.6,17.6,0,0,0,13.922-4.36c.107-.092.225-.174.419-.323" transform="translate(-360.123 -4273.674)" fill="#fff"/>
    <path id="Path_331" data-name="Path 331" d="M155.349,4386.3H133.757c.094,1,.137,1.96.282,2.9a9.933,9.933,0,0,0,3.021,6.187,9.025,9.025,0,0,0,5.58,2.169,14.642,14.642,0,0,0,10.2-3.1c.114-.086.231-.168.394-.288a4.57,4.57,0,0,1,.249.413q.455.978.9,1.961c.521,1.159.529,1.173-.533,1.928a17,17,0,0,1-9.414,3.056,17.183,17.183,0,0,1-6.732-.94,12.078,12.078,0,0,1-7.452-7.254,18.226,18.226,0,0,1,.6-15.2c2.365-4.649,6.333-6.971,11.539-7.157a12.934,12.934,0,0,1,5.954,1.054,11.463,11.463,0,0,1,6.247,7.473,19.693,19.693,0,0,1,.754,6.79m-21.307-3.22h17.07c-.11-.686-.179-1.32-.317-1.938a7.621,7.621,0,0,0-3.916-5.6,8.945,8.945,0,0,0-12.837,7.541" transform="translate(-128.884 -4358.954)" fill="#fff"/>
    <path id="Path_332" data-name="Path 332" d="M431.065,4717.973a2.219,2.219,0,0,1-2.618.593,2.283,2.283,0,0,1-1.335-2.187c-.086-1.529.575-2.592,1.768-2.873a2.181,2.181,0,0,1,2.182.729l.171-.631h.847v7.211h-1.014Zm-2.934-1.853c0,1.346.966,2.153,2.027,1.691a1.726,1.726,0,0,0,.862-1.7c-.032-.747-.155-1.443-.989-1.73-1.028-.355-1.9.444-1.9,1.743" transform="translate(-390.273 -4659.126)" fill="#fff"/>
    <path id="Path_333" data-name="Path 333" d="M341.2,4703.222h-1.035c0-.781,0-1.554,0-2.327,0-.247,0-.494,0-.74-.021-.84-.3-1.221-.944-1.276a1.326,1.326,0,0,0-1.476,1.179c-.069.8-.034,1.6-.043,2.4,0,.226,0,.451,0,.756l-1.008.046v-7.412h1v2.7a8.164,8.164,0,0,1,1.681-.5,1.543,1.543,0,0,1,1.813,1.571c.069,1.185.016,2.376.016,3.6" transform="translate(-311.029 -4643.71)" fill="#fff"/>
    <path id="Path_334" data-name="Path 334" d="M284.693,4698.042a3.152,3.152,0,0,0-2.392-.745,1.9,1.9,0,0,0-1.612,1.085,3.747,3.747,0,0,0,.027,3.391,2.3,2.3,0,0,0,3.068.847c.315-.141.606-.333.907-.5.482.763.473.881-.32,1.237a3.617,3.617,0,0,1-3.855-.273,3.7,3.7,0,0,1-1.23-3.847,3.412,3.412,0,0,1,5.074-2.5c.765.382.79.471.334,1.3" transform="translate(-260.633 -4644.115)" fill="#fff"/>
    <path id="Path_335" data-name="Path 335" d="M237.723,4717.337l.308.684a2.96,2.96,0,0,1-3.857,0,3.022,3.022,0,0,1-.058-3.852,2.512,2.512,0,0,1,2.724-.582,2.313,2.313,0,0,1,1.237,2.526h-3.5a1.4,1.4,0,0,0,.592,1.506,2.334,2.334,0,0,0,2.557-.286M234.6,4715.5h2.551c-.1-.849-.473-1.251-1.137-1.288-.747-.041-1.25.4-1.415,1.288" transform="translate(-220.537 -4659.103)" fill="#fff"/>
    <path id="Path_336" data-name="Path 336" d="M386.91,4716.172H383.4a1.419,1.419,0,0,0,.57,1.478c.564.42,1.428.325,2.581-.261l.3.646a3.058,3.058,0,0,1-3.46.344,2.832,2.832,0,0,1-.977-3.243,2.359,2.359,0,0,1,2.495-1.689c1.3.063,2.087,1.094,2,2.724m-.952-.675a1.171,1.171,0,0,0-1.148-1.26,1.313,1.313,0,0,0-1.388,1.26Z" transform="translate(-350.973 -4659.131)" fill="#fff"/>
    <path id="Path_337" data-name="Path 337" d="M479.15,4714.6h.978v2.578c0,.165,0,.329,0,.493.014.788.309,1.182.916,1.232a1.234,1.234,0,0,0,1.422-1.065c.086-.773.051-1.56.065-2.34.005-.284,0-.567,0-.876h1v5.029l-.9.1-.1-.7a2.163,2.163,0,0,1-1.923.714,1.474,1.474,0,0,1-1.439-1.362c-.068-1.245-.018-2.5-.018-3.8" transform="translate(-435.875 -4660.142)" fill="#fff"/>
    <path id="Path_338" data-name="Path 338" d="M528.922,4716.184h-3.5a1.457,1.457,0,0,0,.616,1.5,2.353,2.353,0,0,0,2.563-.281l.295.67a3.055,3.055,0,0,1-3.465.327,2.781,2.781,0,0,1-.973-3.183,2.349,2.349,0,0,1,2.393-1.743,2.17,2.17,0,0,1,2.069,2.714m-.878-.658c-.145-.863-.54-1.256-1.226-1.266a1.3,1.3,0,0,0-1.331,1.266Z" transform="translate(-475.48 -4659.152)" fill="#fff"/>
  </g>
</svg>
