<svg xmlns="http://www.w3.org/2000/svg" width="76.252" height="43.625" viewBox="0 0 76.252 43.625">
  <g id="Group_453" data-name="Group 453" transform="translate(0)">
    <path id="Path_478" data-name="Path 478" d="M4889.375,4074.969q-18.189,0-36.376.005a4.505,4.505,0,0,0-1.375.081c-.3.094-.448-.179-.354-.423a2.48,2.48,0,0,0,.081-.945q.007-8.45-.011-16.9c0-.554.135-.7.7-.705,1.354-.015,2.714-.073,4.061-.05,7.524.132,15.048.036,22.572.047q23.688.036,47.375,0c1.019,0,1,0,1,1.028q-.015,8.342-.012,16.685c0,.071,0,.143.006.214.043.969.043.962-.963.961h-36.7m-.137-2.97v-.013h17.385q8.451,0,16.9.008c.412,0,.553-.078.526-.535-.057-.981-.04-1.966-.041-2.949,0-2.951-.015-5.9.011-8.852,0-.488-.136-.614-.6-.581-.587.041-1.18.01-1.77.011q-33.349.005-66.7,0c-.465,0-.6.1-.6.585.022,3.612.013,7.225.011,10.838a2.548,2.548,0,0,1-.047.582c-.167.708-.024.907.687.907h34.233" transform="translate(-4851.241 -4056.027)" fill="#fff"/>
    <path id="Path_479" data-name="Path 479" d="M4877.818,4356.7q12.417,0,24.837-.007c.3,0,.423.085.416.388-.013.5-.009,1-.009,1.5q0,8.18.008,16.36c0,.328.02.574-.459.573-5.042-.02-10.084-.017-15.127-.018l-33.742-.006c-1.147,0-1.148,0-1.148-1.148q0-8.476,0-16.951c0-.7,0-.688.711-.687h24.516Zm-.042,15.808v0h10.838q5.419,0,10.838.007c.385,0,.646-.04.643-.539-.034-3.933-.06-7.866-.052-11.8,0-.5-.151-.579-.593-.566-3.522.105-7.046.059-10.569.058q-16.254,0-32.51-.022c-.771,0-.777,0-.777.758q0,5.713.009,11.427c0,.68,0,.68.713.68h21.46" transform="translate(-4852.479 -4331.894)" fill="#fff"/>
    <path id="Path_480" data-name="Path 480" d="M5564.911,4373.014q0-4.131,0-8.262c0-.157-.044-.422.085-.438a1.025,1.025,0,0,1,.7.146,20.5,20.5,0,0,0,2.214,1.141c.621.384,1.3.658,1.927,1.023.515.3,1.1.473,1.611.8,1.136.737,2.438,1.148,3.6,1.843.937.558,1.975.944,2.941,1.454,1.058.559,2.18.991,3.186,1.65a1.578,1.578,0,0,0,.828.185c.1,0,.23,0,.269.125s-.088.163-.141.24c-.52.785-1.45.876-2.17,1.317-1.1.675-2.3,1.173-3.448,1.771a4.805,4.805,0,0,1-1.931.822.292.292,0,0,0-.156.03,19.229,19.229,0,0,1-3.614,1.982c-1.637.882-3.287,1.738-4.991,2.488a.565.565,0,0,0-.28.231.4.4,0,0,1-.466.266c-.261-.069-.154-.329-.154-.507q-.008-4.157,0-8.314Z" transform="translate(-5506.028 -4338.875)" fill="#fff"/>
  </g>
</svg>
